<svg class="main-svg" xmlns="http://www.w3.org/2000/svg" xmlns:xlink="http://www.w3.org/1999/xlink" width="800" height="800" style="" viewBox="0 0 800 800"><rect x="0" y="0" width="800" height="800" style="fill: rgb(255, 255, 255); fill-opacity: 1;"/><defs id="defs-8517df"><g class="clips"><clipPath id="clip8517dfxyplot" class="plotclip"><rect width="518.42" height="206.79999999999998"/></clipPath><clipPath id="clip8517dfx2y2plot" class="plotclip"><rect width="518.42" height="206.79999999999993"/></clipPath><clipPath id="clip8517dfx3y3plot" class="plotclip"><rect width="518.42" height="206.79999999999993"/></clipPath><clipPath class="axesclip" id="clip8517dfx"><rect x="80" y="0" width="518.42" height="800"/></clipPath><clipPath class="axesclip" id="clip8517dfy"><rect x="0" y="513.2" width="800" height="206.79999999999998"/></clipPath><clipPath class="axesclip" id="clip8517dfxy"><rect x="80" y="513.2" width="518.42" height="206.79999999999998"/></clipPath><clipPath class="axesclip" id="clip8517dfy2"><rect x="0" y="286.60000000000014" width="800" height="206.79999999999993"/></clipPath><clipPath class="axesclip" id="clip8517dfxy2"><rect x="80" y="286.60000000000014" width="518.42" height="206.79999999999993"/></clipPath><clipPath class="axesclip" id="clip8517dfy3"><rect x="0" y="60.00000000000015" width="800" height="206.79999999999993"/></clipPath><clipPath class="axesclip" id="clip8517dfxy3"><rect x="80" y="60.00000000000015" width="518.42" height="206.79999999999993"/></clipPath><clipPath class="axesclip" id="clip8517dfx2"><rect x="80" y="0" width="518.42" height="800"/></clipPath><clipPath class="axesclip" id="clip8517dfx2y"><rect x="80" y="513.2" width="518.42" height="206.79999999999998"/></clipPath><clipPath class="axesclip" id="clip8517dfx2y2"><rect x="80" y="286.60000000000014" width="518.42" height="206.79999999999993"/></clipPath><clipPath class="axesclip" id="clip8517dfx2y3"><rect x="80" y="60.00000000000015" width="518.42" height="206.79999999999993"/></clipPath><clipPath class="axesclip" id="clip8517dfx3"><rect x="80" y="0" width="518.42" height="800"/></clipPath><clipPath class="axesclip" id="clip8517dfx3y"><rect x="80" y="513.2" width="518.42" height="206.79999999999998"/></clipPath><clipPath class="axesclip" id="clip8517dfx3y2"><rect x="80" y="286.60000000000014" width="518.42" height="206.79999999999993"/></clipPath><clipPath class="axesclip" id="clip8517dfx3y3"><rect x="80" y="60.00000000000015" width="518.42" height="206.79999999999993"/></clipPath></g><g class="gradients"/><g class="patterns"/></defs><g class="bglayer"><rect class="bg" x="80" y="513.2" width="518.42" height="206.79999999999998" style="fill: rgb(229, 236, 246); fill-opacity: 1; stroke-width: 0;"/><rect class="bg" x="80" y="286.60000000000014" width="518.42" height="206.79999999999993" style="fill: rgb(229, 236, 246); fill-opacity: 1; stroke-width: 0;"/><rect class="bg" x="80" y="60.00000000000015" width="518.42" height="206.79999999999993" style="fill: rgb(229, 236, 246); fill-opacity: 1; stroke-width: 0;"/></g><g class="layer-below"><g class="imagelayer"/><g class="shapelayer"/></g><g class="cartesianlayer"><g class="subplot xy"><g class="layer-subplot"><g class="shapelayer"/><g class="imagelayer"/></g><g class="minor-gridlayer"><g class="x"/><g class="y"/></g><g class="gridlayer"><g class="x"><path class="xgrid crisp" transform="translate(172.57,0)" d="M0,513.2v206.79999999999998" style="stroke: rgb(255, 255, 255); stroke-opacity: 1; stroke-width: 1px;"/><path class="xgrid crisp" transform="translate(287.37,0)" d="M0,513.2v206.79999999999998" style="stroke: rgb(255, 255, 255); stroke-opacity: 1; stroke-width: 1px;"/><path class="xgrid crisp" transform="translate(398.46,0)" d="M0,513.2v206.79999999999998" style="stroke: rgb(255, 255, 255); stroke-opacity: 1; stroke-width: 1px;"/><path class="xgrid crisp" transform="translate(513.25,0)" d="M0,513.2v206.79999999999998" style="stroke: rgb(255, 255, 255); stroke-opacity: 1; stroke-width: 1px;"/></g><g class="y"><path class="ygrid crisp" transform="translate(0,696.1800000000001)" d="M80,0h518.42" style="stroke: rgb(255, 255, 255); stroke-opacity: 1; stroke-width: 1px;"/><path class="ygrid crisp" transform="translate(0,653.9200000000001)" d="M80,0h518.42" style="stroke: rgb(255, 255, 255); stroke-opacity: 1; stroke-width: 1px;"/><path class="ygrid crisp" transform="translate(0,569.3900000000001)" d="M80,0h518.42" style="stroke: rgb(255, 255, 255); stroke-opacity: 1; stroke-width: 1px;"/><path class="ygrid crisp" transform="translate(0,527.13)" d="M80,0h518.42" style="stroke: rgb(255, 255, 255); stroke-opacity: 1; stroke-width: 1px;"/></g></g><g class="zerolinelayer"><path class="yzl zl crisp" transform="translate(0,611.6600000000001)" d="M80,0h518.42" style="stroke: rgb(255, 255, 255); stroke-opacity: 1; stroke-width: 2px;"/></g><path class="xlines-below"/><path class="ylines-below"/><g class="overlines-below"/><g class="xaxislayer-below"/><g class="yaxislayer-below"/><g class="overaxes-below"/><g class="plot" transform="translate(80,513.2)" clip-path="url(#clip8517dfxyplot)"><g class="scatterlayer mlayer"><g class="trace scatter trace7a2081" style="stroke-miterlimit: 2; opacity: 1;"><g class="fills"/><g class="errorbars"/><g class="lines"><path class="js-line" d="M3.7,99.43H7.41V196.46H11.11V63.19H14.81V62.13H18.51V98.46H22.22V98.46H25.92V98.46H29.62V10.34H33.33V98.46H37.03V68.22H40.73V87.43H44.44V98.46H48.14V98.46H51.84V98.46H55.54V98.46H59.25V98.46H62.95V86.96H66.65V86.92H70.36V98.46H74.06V98.46H77.76V98.46H81.47V98.46H85.17V98.46H88.87V98.46H92.57V98.46H96.28V98.46H99.98V98.46H103.68V98.46H107.39V98.46H111.09V98.46H114.79V98.46H118.5V98.46H122.2V98.46H125.9V98.46H129.6V88.02H133.31V87.76H137.01V98.46H140.71V86.77H144.42V87.13H148.12V98.46H151.82V98.46H155.53V98.46H159.23V98.46H162.93V98.46H166.63V88.65H170.34V85.52H174.04V98.46H177.74V98.46H181.45V98.46H185.15V98.46H188.85V98.46H192.56V98.46H196.26V87.89H199.96V87.59H203.67V98.46H207.37V98.46H211.07V98.46H214.77V98.46H218.48V98.46H222.18V113.39H225.88V98.46H229.59V98.46H233.29V86.75H236.99V98.46H240.7V98.46H244.4V86.75H248.1V77.6H251.8V98.46H255.51V98.46H259.21V98.46H262.91V98.46H266.62V98.46H270.32V86.9H274.02V98.46H277.73V98.46H281.43V98.46H285.13V87.95H288.83V98.46H292.54V98.46H296.24V98.46H299.94V76.92H303.65V98.46H307.35V98.46H311.05V98.46H314.76V98.46H318.46V98.46H322.16V85.27H325.86V98.46H329.57V98.46H333.27V98.46H336.97V80.39H340.68V87.11H344.38V98.46H348.08V98.46H351.79V87.21H355.49V87.47H359.19V98.46H362.89V98.46H366.6V98.46H370.3V98.46H374V87.51H377.71V74.2H381.41V98.46H385.11V87.74H388.82V82.73H392.52V98.46H396.22V88.4H399.92V82.78H403.63V74.35H407.33V87.23H411.03V87.83H414.74V57.25H418.44V87.64H422.14V73.67H425.85V79.59H429.55V84.61H433.25V76.61H436.95V76.46H440.66V98.46H444.36V87.34H448.06V98.46H451.77V81.36H455.47V87.59H459.17V98.46H462.88V87.17H466.58V98.46H470.28V88.8H473.98V98.46H477.69V87.28H481.39V87.7H485.09V87.87H488.8V98.46H492.5V87.21H496.2V98.46H499.9V98.46H503.61V90.28H507.31V86.47H511.01V98.46H514.72V91.4" style="vector-effect: non-scaling-stroke; fill: none; stroke: rgb(25, 211, 243); stroke-opacity: 1; stroke-width: 2px; opacity: 1;"/></g><g class="points"/><g class="text"/></g></g></g><g class="overplot"/><path class="xlines-above crisp" d="M0,0" style="fill: none;"/><path class="ylines-above crisp" d="M0,0" style="fill: none;"/><g class="overlines-above"/><g class="xaxislayer-above"><g class="xtick"><text text-anchor="middle" x="0" y="733" transform="translate(172.57,0)" style="font-family: 'Open Sans', verdana, arial, sans-serif; font-size: 12px; fill: rgb(42, 63, 95); fill-opacity: 1; white-space: pre; opacity: 1;">Oct 2023</text></g><g class="xtick"><text text-anchor="middle" x="0" y="733" style="font-family: 'Open Sans', verdana, arial, sans-serif; font-size: 12px; fill: rgb(42, 63, 95); fill-opacity: 1; white-space: pre; opacity: 1;" transform="translate(287.37,0)">Nov 2023</text></g><g class="xtick"><text text-anchor="middle" x="0" y="733" style="font-family: 'Open Sans', verdana, arial, sans-serif; font-size: 12px; fill: rgb(42, 63, 95); fill-opacity: 1; white-space: pre; opacity: 1;" transform="translate(398.46,0)">Dec 2023</text></g><g class="xtick"><text text-anchor="middle" x="0" y="733" style="font-family: 'Open Sans', verdana, arial, sans-serif; font-size: 12px; fill: rgb(42, 63, 95); fill-opacity: 1; white-space: pre; opacity: 1;" transform="translate(513.25,0)">Jan 2024</text></g></g><g class="yaxislayer-above"><g class="ytick"><text text-anchor="end" x="79" y="4.199999999999999" transform="translate(0,696.1800000000001)" style="font-family: 'Open Sans', verdana, arial, sans-serif; font-size: 12px; fill: rgb(42, 63, 95); fill-opacity: 1; white-space: pre; opacity: 1;">−4000</text></g><g class="ytick"><text text-anchor="end" x="79" y="4.199999999999999" style="font-family: 'Open Sans', verdana, arial, sans-serif; font-size: 12px; fill: rgb(42, 63, 95); fill-opacity: 1; white-space: pre; opacity: 1;" transform="translate(0,653.9200000000001)">−2000</text></g><g class="ytick"><text text-anchor="end" x="79" y="4.199999999999999" style="font-family: 'Open Sans', verdana, arial, sans-serif; font-size: 12px; fill: rgb(42, 63, 95); fill-opacity: 1; white-space: pre; opacity: 1;" transform="translate(0,611.6600000000001)">0</text></g><g class="ytick"><text text-anchor="end" x="79" y="4.199999999999999" style="font-family: 'Open Sans', verdana, arial, sans-serif; font-size: 12px; fill: rgb(42, 63, 95); fill-opacity: 1; white-space: pre; opacity: 1;" transform="translate(0,569.3900000000001)">2000</text></g><g class="ytick"><text text-anchor="end" x="79" y="4.199999999999999" style="font-family: 'Open Sans', verdana, arial, sans-serif; font-size: 12px; fill: rgb(42, 63, 95); fill-opacity: 1; white-space: pre; opacity: 1;" transform="translate(0,527.13)">4000</text></g></g><g class="overaxes-above"/></g><g class="subplot x2y2"><g class="layer-subplot"><g class="shapelayer"/><g class="imagelayer"/></g><g class="minor-gridlayer"><g class="x2"/><g class="y2"/></g><g class="gridlayer"><g class="x2"><path class="x2grid crisp" transform="translate(172.57,0)" d="M0,286.60000000000014v206.79999999999993" style="stroke: rgb(255, 255, 255); stroke-opacity: 1; stroke-width: 1px;"/><path class="x2grid crisp" transform="translate(287.37,0)" d="M0,286.60000000000014v206.79999999999993" style="stroke: rgb(255, 255, 255); stroke-opacity: 1; stroke-width: 1px;"/><path class="x2grid crisp" transform="translate(398.46,0)" d="M0,286.60000000000014v206.79999999999993" style="stroke: rgb(255, 255, 255); stroke-opacity: 1; stroke-width: 1px;"/><path class="x2grid crisp" transform="translate(513.25,0)" d="M0,286.60000000000014v206.79999999999993" style="stroke: rgb(255, 255, 255); stroke-opacity: 1; stroke-width: 1px;"/></g><g class="y2"><path class="y2grid crisp" transform="translate(0,482.70000000000016)" d="M80,0h518.42" style="stroke: rgb(255, 255, 255); stroke-opacity: 1; stroke-width: 1px;"/><path class="y2grid crisp" transform="translate(0,437.41000000000014)" d="M80,0h518.42" style="stroke: rgb(255, 255, 255); stroke-opacity: 1; stroke-width: 1px;"/><path class="y2grid crisp" transform="translate(0,392.1300000000001)" d="M80,0h518.42" style="stroke: rgb(255, 255, 255); stroke-opacity: 1; stroke-width: 1px;"/><path class="y2grid crisp" transform="translate(0,346.84000000000015)" d="M80,0h518.42" style="stroke: rgb(255, 255, 255); stroke-opacity: 1; stroke-width: 1px;"/><path class="y2grid crisp" transform="translate(0,301.5600000000001)" d="M80,0h518.42" style="stroke: rgb(255, 255, 255); stroke-opacity: 1; stroke-width: 1px;"/></g></g><g class="zerolinelayer"/><path class="xlines-below"/><path class="ylines-below"/><g class="overlines-below"/><g class="xaxislayer-below"/><g class="yaxislayer-below"/><g class="overaxes-below"/><g class="plot" transform="translate(80,286.60000000000014)" clip-path="url(#clip8517dfx2y2plot)"><g class="scatterlayer mlayer"><g class="trace scatter trace5ada0b" style="stroke-miterlimit: 2; opacity: 1;"><g class="fills"/><g class="errorbars"/><g class="lines"><path class="js-line" d="M411.03,187.58H414.74V136.59H418.44V90.22H425.85V55.62H436.95V10.34" style="vector-effect: non-scaling-stroke; fill: none; stroke: rgb(171, 99, 250); stroke-opacity: 1; stroke-width: 2px; opacity: 1;"/></g><g class="points"/><g class="text"/></g><g class="trace scatter tracea29d88" style="stroke-miterlimit: 2; opacity: 1;"><g class="fills"/><g class="errorbars"/><g class="lines"><path class="js-line" d="M218.48,132.43H222.18V196.46" style="vector-effect: non-scaling-stroke; fill: none; stroke: rgb(255, 161, 90); stroke-opacity: 1; stroke-width: 2px; opacity: 1;"/></g><g class="points"/><g class="text"/></g></g></g><g class="overplot"/><path class="xlines-above crisp" d="M0,0" style="fill: none;"/><path class="ylines-above crisp" d="M0,0" style="fill: none;"/><g class="overlines-above"/><g class="xaxislayer-above"/><g class="yaxislayer-above"><g class="y2tick"><text text-anchor="end" x="79" y="4.199999999999999" transform="translate(0,482.70000000000016)" style="font-family: 'Open Sans', verdana, arial, sans-serif; font-size: 12px; fill: rgb(42, 63, 95); fill-opacity: 1; white-space: pre; opacity: 1;">1000</text></g><g class="y2tick"><text text-anchor="end" x="79" y="4.199999999999999" style="font-family: 'Open Sans', verdana, arial, sans-serif; font-size: 12px; fill: rgb(42, 63, 95); fill-opacity: 1; white-space: pre; opacity: 1;" transform="translate(0,437.41000000000014)">1500</text></g><g class="y2tick"><text text-anchor="end" x="79" y="4.199999999999999" style="font-family: 'Open Sans', verdana, arial, sans-serif; font-size: 12px; fill: rgb(42, 63, 95); fill-opacity: 1; white-space: pre; opacity: 1;" transform="translate(0,392.1300000000001)">2000</text></g><g class="y2tick"><text text-anchor="end" x="79" y="4.199999999999999" style="font-family: 'Open Sans', verdana, arial, sans-serif; font-size: 12px; fill: rgb(42, 63, 95); fill-opacity: 1; white-space: pre; opacity: 1;" transform="translate(0,346.84000000000015)">2500</text></g><g class="y2tick"><text text-anchor="end" x="79" y="4.199999999999999" style="font-family: 'Open Sans', verdana, arial, sans-serif; font-size: 12px; fill: rgb(42, 63, 95); fill-opacity: 1; white-space: pre; opacity: 1;" transform="translate(0,301.5600000000001)">3000</text></g></g><g class="overaxes-above"/></g><g class="subplot x3y3"><g class="layer-subplot"><g class="shapelayer"/><g class="imagelayer"/></g><g class="minor-gridlayer"><g class="x3"/><g class="y3"/></g><g class="gridlayer"><g class="x3"><path class="x3grid crisp" transform="translate(172.57,0)" d="M0,60.00000000000015v206.79999999999993" style="stroke: rgb(255, 255, 255); stroke-opacity: 1; stroke-width: 1px;"/><path class="x3grid crisp" transform="translate(287.37,0)" d="M0,60.00000000000015v206.79999999999993" style="stroke: rgb(255, 255, 255); stroke-opacity: 1; stroke-width: 1px;"/><path class="x3grid crisp" transform="translate(398.46,0)" d="M0,60.00000000000015v206.79999999999993" style="stroke: rgb(255, 255, 255); stroke-opacity: 1; stroke-width: 1px;"/><path class="x3grid crisp" transform="translate(513.25,0)" d="M0,60.00000000000015v206.79999999999993" style="stroke: rgb(255, 255, 255); stroke-opacity: 1; stroke-width: 1px;"/></g><g class="y3"><path class="y3grid crisp" transform="translate(0,228.77000000000015)" d="M80,0h518.42" style="stroke: rgb(255, 255, 255); stroke-opacity: 1; stroke-width: 1px;"/><path class="y3grid crisp" transform="translate(0,173.59000000000015)" d="M80,0h518.42" style="stroke: rgb(255, 255, 255); stroke-opacity: 1; stroke-width: 1px;"/><path class="y3grid crisp" transform="translate(0,118.41000000000014)" d="M80,0h518.42" style="stroke: rgb(255, 255, 255); stroke-opacity: 1; stroke-width: 1px;"/><path class="y3grid crisp" transform="translate(0,63.24000000000015)" d="M80,0h518.42" style="stroke: rgb(255, 255, 255); stroke-opacity: 1; stroke-width: 1px;"/></g></g><g class="zerolinelayer"/><path class="xlines-below"/><path class="ylines-below"/><g class="overlines-below"/><g class="xaxislayer-below"/><g class="yaxislayer-below"/><g class="overaxes-below"/><g class="plot" transform="translate(80,60.00000000000015)" clip-path="url(#clip8517dfx3y3plot)"><g class="scatterlayer mlayer"><g class="trace scatter trace12de52" style="stroke-miterlimit: 2; opacity: 1;"><g class="fills"/><g class="errorbars"/><g class="lines"><path class="js-line" d="M33.33,176.08H37.03V175.44H40.73V172.56H62.95V169.56H66.65V166.54H129.6V163.82H133.31V161.03H140.71V157.97H144.42V155.02H166.63V152.46H170.34V149.08H196.26V146.32H199.96V143.49H233.29V140.43H244.4V137.37H248.1V131.93H270.32V128.91H285.13V126.17H299.94V120.54H322.16V117.1H336.97V112.38H340.68V109.42H351.79V106.48H355.49V103.62H374V100.76H377.71V94.42H385.11V91.63H388.82V87.52H396.22V84.89H399.92V80.8H411.03V78.02H414.74V74.16H422.14V70.59" style="vector-effect: non-scaling-stroke; fill: none; stroke: rgb(99, 110, 250); stroke-opacity: 1; stroke-width: 2px; opacity: 1;"/></g><g class="points"/><g class="text"/></g><g class="trace scatter tracecf7425" style="stroke-miterlimit: 2; opacity: 1;"><g class="fills"/><g class="errorbars"/><g class="lines"><path class="js-line" d="M0,33.45H3.7V33.7H7.41V59.29H11.11V50.08H14.81V40.6H29.62V17.59H37.03V10.34" style="vector-effect: non-scaling-stroke; fill: none; stroke: rgb(239, 85, 59); stroke-opacity: 1; stroke-width: 2px; opacity: 1;"/></g><g class="points"/><g class="text"/></g><g class="trace scatter trace638186" style="stroke-miterlimit: 2; opacity: 1;"><g class="fills"/><g class="errorbars"/><g class="lines"><path class="js-line" d="M399.92,196.46H403.63V190.16H407.33V187.23H414.74V183.45H422.14V180.54H425.85V177.72H429.55V174.11H433.25V168.4H436.95V165.42H444.36V162.52H451.77V158.05H455.47V155.22H462.88V152.27H470.28V149.75H477.69V146.83H481.39V144.02H485.09V141.26H492.5V138.32H503.61V136.19H507.31V133.06H514.72V131.21" style="vector-effect: non-scaling-stroke; fill: none; stroke: rgb(0, 204, 150); stroke-opacity: 1; stroke-width: 2px; opacity: 1;"/></g><g class="points"/><g class="text"/></g></g></g><g class="overplot"/><path class="xlines-above crisp" d="M0,0" style="fill: none;"/><path class="ylines-above crisp" d="M0,0" style="fill: none;"/><g class="overlines-above"/><g class="xaxislayer-above"/><g class="yaxislayer-above"><g class="y3tick"><text text-anchor="end" x="79" y="4.199999999999999" transform="translate(0,228.77000000000015)" style="font-family: 'Open Sans', verdana, arial, sans-serif; font-size: 12px; fill: rgb(42, 63, 95); fill-opacity: 1; white-space: pre; opacity: 1;">10k</text></g><g class="y3tick"><text text-anchor="end" x="79" y="4.199999999999999" style="font-family: 'Open Sans', verdana, arial, sans-serif; font-size: 12px; fill: rgb(42, 63, 95); fill-opacity: 1; white-space: pre; opacity: 1;" transform="translate(0,173.59000000000015)">20k</text></g><g class="y3tick"><text text-anchor="end" x="79" y="4.199999999999999" style="font-family: 'Open Sans', verdana, arial, sans-serif; font-size: 12px; fill: rgb(42, 63, 95); fill-opacity: 1; white-space: pre; opacity: 1;" transform="translate(0,118.41000000000014)">30k</text></g><g class="y3tick"><text text-anchor="end" x="79" y="4.199999999999999" style="font-family: 'Open Sans', verdana, arial, sans-serif; font-size: 12px; fill: rgb(42, 63, 95); fill-opacity: 1; white-space: pre; opacity: 1;" transform="translate(0,63.24000000000015)">40k</text></g></g><g class="overaxes-above"/></g></g><g class="polarlayer"/><g class="smithlayer"/><g class="ternarylayer"/><g class="geolayer"/><g class="funnelarealayer"/><g class="pielayer"/><g class="iciclelayer"/><g class="treemaplayer"/><g class="sunburstlayer"/><g class="glimages"/><defs id="topdefs-8517df"><g class="clips"/><clipPath id="legend8517df"><rect width="168" height="143" x="0" y="0"/></clipPath></defs><g class="layer-above"><g class="imagelayer"/><g class="shapelayer"/></g><g class="infolayer"><g class="legend" pointer-events="all" transform="translate(619.58,60)"><rect class="bg" shape-rendering="crispEdges" style="stroke: rgb(68, 68, 68); stroke-opacity: 1; fill: rgb(255, 255, 255); fill-opacity: 1; stroke-width: 0px;" width="168" height="143" x="0" y="0"/><g class="scrollbox" transform="" clip-path="url(#legend8517df)"><text class="legendtitletext" text-anchor="start" x="2" y="18.2" style="font-family: 'Open Sans', verdana, arial, sans-serif; font-size: 14px; fill: rgb(42, 63, 95); fill-opacity: 1; white-space: pre;">title</text><g class="groups" transform=""><g class="traces" transform="translate(0,32.7)" style="opacity: 1;"><text class="legendtext" text-anchor="start" x="40" y="4.680000000000001" style="font-family: 'Open Sans', verdana, arial, sans-serif; font-size: 12px; fill: rgb(42, 63, 95); fill-opacity: 1; white-space: pre;">All the Other Santas</text><g class="layers" style="opacity: 1;"><g class="legendfill"/><g class="legendlines"><path class="js-line" d="M5,0h30" style="fill: none; stroke: rgb(99, 110, 250); stroke-opacity: 1; stroke-width: 2px;"/></g><g class="legendsymbols"><g class="legendpoints"/></g></g><rect class="legendtoggle" x="0" y="-9.5" width="162.15625" height="19" style="fill: rgb(0, 0, 0); fill-opacity: 0;"/></g></g><g class="groups" transform=""><g class="traces" transform="translate(0,51.7)" style="opacity: 1;"><text class="legendtext" text-anchor="start" x="40" y="4.680000000000001" style="font-family: 'Open Sans', verdana, arial, sans-serif; font-size: 12px; fill: rgb(42, 63, 95); fill-opacity: 1; white-space: pre;">Iffy</text><g class="layers" style="opacity: 1;"><g class="legendfill"/><g class="legendlines"><path class="js-line" d="M5,0h30" style="fill: none; stroke: rgb(239, 85, 59); stroke-opacity: 1; stroke-width: 2px;"/></g><g class="legendsymbols"><g class="legendpoints"/></g></g><rect class="legendtoggle" x="0" y="-9.5" width="162.15625" height="19" style="fill: rgb(0, 0, 0); fill-opacity: 0;"/></g></g><g class="groups" transform=""><g class="traces" transform="translate(0,70.7)" style="opacity: 1;"><text class="legendtext" text-anchor="start" x="40" y="4.680000000000001" style="font-family: 'Open Sans', verdana, arial, sans-serif; font-size: 12px; fill: rgb(42, 63, 95); fill-opacity: 1; white-space: pre;">In Heck</text><g class="layers" style="opacity: 1;"><g class="legendfill"/><g class="legendlines"><path class="js-line" d="M5,0h30" style="fill: none; stroke: rgb(0, 204, 150); stroke-opacity: 1; stroke-width: 2px;"/></g><g class="legendsymbols"><g class="legendpoints"/></g></g><rect class="legendtoggle" x="0" y="-9.5" width="162.15625" height="19" style="fill: rgb(0, 0, 0); fill-opacity: 0;"/></g></g><g class="groups" transform=""><g class="traces" transform="translate(0,89.7)" style="opacity: 1;"><text class="legendtext" text-anchor="start" x="40" y="4.680000000000001" style="font-family: 'Open Sans', verdana, arial, sans-serif; font-size: 12px; fill: rgb(42, 63, 95); fill-opacity: 1; white-space: pre;">Leaderboard</text><g class="layers" style="opacity: 1;"><g class="legendfill"/><g class="legendlines"><path class="js-line" d="M5,0h30" style="fill: none; stroke: rgb(171, 99, 250); stroke-opacity: 1; stroke-width: 2px;"/></g><g class="legendsymbols"><g class="legendpoints"/></g></g><rect class="legendtoggle" x="0" y="-9.5" width="162.15625" height="19" style="fill: rgb(0, 0, 0); fill-opacity: 0;"/></g></g><g class="groups" transform=""><g class="traces" transform="translate(0,108.7)" style="opacity: 1;"><text class="legendtext" text-anchor="start" x="40" y="4.680000000000001" style="font-family: 'Open Sans', verdana, arial, sans-serif; font-size: 12px; fill: rgb(42, 63, 95); fill-opacity: 1; white-space: pre;">Tuppence a Bag</text><g class="layers" style="opacity: 1;"><g class="legendfill"/><g class="legendlines"><path class="js-line" d="M5,0h30" style="fill: none; stroke: rgb(255, 161, 90); stroke-opacity: 1; stroke-width: 2px;"/></g><g class="legendsymbols"><g class="legendpoints"/></g></g><rect class="legendtoggle" x="0" y="-9.5" width="162.15625" height="19" style="fill: rgb(0, 0, 0); fill-opacity: 0;"/></g></g><g class="groups" transform=""><g class="traces" transform="translate(0,127.7)" style="opacity: 1;"><text class="legendtext" text-anchor="start" x="40" y="4.680000000000001" style="font-family: 'Open Sans', verdana, arial, sans-serif; font-size: 12px; fill: rgb(42, 63, 95); fill-opacity: 1; white-space: pre;">change</text><g class="layers" style="opacity: 1;"><g class="legendfill"/><g class="legendlines"><path class="js-line" d="M5,0h30" style="fill: none; stroke: rgb(25, 211, 243); stroke-opacity: 1; stroke-width: 2px;"/></g><g class="legendsymbols"><g class="legendpoints"/></g></g><rect class="legendtoggle" x="0" y="-9.5" width="162.15625" height="19" style="fill: rgb(0, 0, 0); fill-opacity: 0;"/></g></g></g><rect class="scrollbar" rx="20" ry="3" width="0" height="0" style="fill: rgb(128, 139, 164); fill-opacity: 1;" x="0" y="0"/></g><g class="g-gtitle"/><g class="g-xtitle"><text class="xtitle" x="339.21" y="760.3" text-anchor="middle" style="font-family: 'Open Sans', verdana, arial, sans-serif; font-size: 14px; fill: rgb(42, 63, 95); opacity: 1; font-weight: normal; white-space: pre;">date</text></g><g class="g-x2title"/><g class="g-x3title"/><g class="g-ytitle" transform="translate(0.150390625,0)"><text class="ytitle" transform="rotate(-90,13.856250000000003,616.6)" x="13.856250000000003" y="616.6" text-anchor="middle" style="font-family: 'Open Sans', verdana, arial, sans-serif; font-size: 14px; fill: rgb(42, 63, 95); opacity: 1; font-weight: normal; white-space: pre;">words</text></g><g class="g-y2title"><text class="y2title" transform="rotate(-90,23.684375000000003,390.0000000000001)" x="23.684375000000003" y="390.0000000000001" text-anchor="middle" style="font-family: 'Open Sans', verdana, arial, sans-serif; font-size: 14px; fill: rgb(42, 63, 95); opacity: 1; font-weight: normal; white-space: pre;">words</text></g><g class="g-y3title"><text class="y3title" transform="rotate(-90,31.840625000000003,163.40000000000012)" x="31.840625000000003" y="163.40000000000012" text-anchor="middle" style="font-family: 'Open Sans', verdana, arial, sans-serif; font-size: 14px; fill: rgb(42, 63, 95); opacity: 1; font-weight: normal; white-space: pre;">words</text></g><g class="annotation" data-index="0" style="opacity: 1;"><g class="annotation-text-g" transform="rotate(90,607.92,616.6)"><g class="cursor-pointer" transform="translate(591,607)"><rect class="bg" x="0.5" y="0.5" width="33" height="18" style="stroke-width: 1px; stroke: rgb(0, 0, 0); stroke-opacity: 0; fill: rgb(0, 0, 0); fill-opacity: 0;"/><text class="annotation-text" text-anchor="middle" x="16.9375" y="14" style="font-family: 'Open Sans', verdana, arial, sans-serif; font-size: 12px; fill: rgb(42, 63, 95); fill-opacity: 1; white-space: pre;">delta</text></g></g></g><g class="annotation" data-index="1" style="opacity: 1;"><g class="annotation-text-g" transform="rotate(90,607.92,390.00000000000006)"><g class="cursor-pointer" transform="translate(590,381)"><rect class="bg" x="0.5" y="0.5" width="34" height="18" style="stroke-width: 1px; stroke: rgb(0, 0, 0); stroke-opacity: 0; fill: rgb(0, 0, 0); fill-opacity: 0;"/><text class="annotation-text" text-anchor="middle" x="17.5" y="14" style="font-family: 'Open Sans', verdana, arial, sans-serif; font-size: 12px; fill: rgb(42, 63, 95); fill-opacity: 1; white-space: pre;">short</text></g></g></g><g class="annotation" data-index="2" style="opacity: 1;"><g class="annotation-text-g" transform="rotate(90,607.92,163.40000000000012)"><g class="cursor-pointer" transform="translate(599,154)"><rect class="bg" x="0.5" y="0.5" width="17" height="18" style="stroke-width: 1px; stroke: rgb(0, 0, 0); stroke-opacity: 0; fill: rgb(0, 0, 0); fill-opacity: 0;"/><text class="annotation-text" text-anchor="middle" x="9.15625" y="14" style="font-family: 'Open Sans', verdana, arial, sans-serif; font-size: 12px; fill: rgb(42, 63, 95); fill-opacity: 1; white-space: pre;">ya</text></g></g></g></g></svg>