<svg class="main-svg" xmlns="http://www.w3.org/2000/svg" xmlns:xlink="http://www.w3.org/1999/xlink" width="800" height="800" style="" viewBox="0 0 800 800"><rect x="0" y="0" width="800" height="800" style="fill: rgb(255, 255, 255); fill-opacity: 1;"/><defs id="defs-3efa76"><g class="clips"><clipPath id="clip3efa76xyplot" class="plotclip"><rect width="518.42" height="116.16000000000001"/></clipPath><clipPath id="clip3efa76x2y2plot" class="plotclip"><rect width="518.42" height="116.16"/></clipPath><clipPath id="clip3efa76x3y3plot" class="plotclip"><rect width="518.42" height="116.16000000000003"/></clipPath><clipPath id="clip3efa76x4y4plot" class="plotclip"><rect width="518.42" height="116.16000000000003"/></clipPath><clipPath id="clip3efa76x5y5plot" class="plotclip"><rect width="518.42" height="116.15999999999995"/></clipPath><clipPath class="axesclip" id="clip3efa76x"><rect x="80" y="0" width="518.42" height="800"/></clipPath><clipPath class="axesclip" id="clip3efa76y"><rect x="0" y="603.8399999999999" width="800" height="116.16000000000001"/></clipPath><clipPath class="axesclip" id="clip3efa76xy"><rect x="80" y="603.8399999999999" width="518.42" height="116.16000000000001"/></clipPath><clipPath class="axesclip" id="clip3efa76y2"><rect x="0" y="467.88" width="800" height="116.16"/></clipPath><clipPath class="axesclip" id="clip3efa76xy2"><rect x="80" y="467.88" width="518.42" height="116.16"/></clipPath><clipPath class="axesclip" id="clip3efa76y3"><rect x="0" y="331.91999999999996" width="800" height="116.16000000000003"/></clipPath><clipPath class="axesclip" id="clip3efa76xy3"><rect x="80" y="331.91999999999996" width="518.42" height="116.16000000000003"/></clipPath><clipPath class="axesclip" id="clip3efa76y4"><rect x="0" y="195.95999999999998" width="800" height="116.16000000000003"/></clipPath><clipPath class="axesclip" id="clip3efa76xy4"><rect x="80" y="195.95999999999998" width="518.42" height="116.16000000000003"/></clipPath><clipPath class="axesclip" id="clip3efa76y5"><rect x="0" y="60" width="800" height="116.15999999999995"/></clipPath><clipPath class="axesclip" id="clip3efa76xy5"><rect x="80" y="60" width="518.42" height="116.15999999999995"/></clipPath><clipPath class="axesclip" id="clip3efa76x2"><rect x="80" y="0" width="518.42" height="800"/></clipPath><clipPath class="axesclip" id="clip3efa76x2y"><rect x="80" y="603.8399999999999" width="518.42" height="116.16000000000001"/></clipPath><clipPath class="axesclip" id="clip3efa76x2y2"><rect x="80" y="467.88" width="518.42" height="116.16"/></clipPath><clipPath class="axesclip" id="clip3efa76x2y3"><rect x="80" y="331.91999999999996" width="518.42" height="116.16000000000003"/></clipPath><clipPath class="axesclip" id="clip3efa76x2y4"><rect x="80" y="195.95999999999998" width="518.42" height="116.16000000000003"/></clipPath><clipPath class="axesclip" id="clip3efa76x2y5"><rect x="80" y="60" width="518.42" height="116.15999999999995"/></clipPath><clipPath class="axesclip" id="clip3efa76x3"><rect x="80" y="0" width="518.42" height="800"/></clipPath><clipPath class="axesclip" id="clip3efa76x3y"><rect x="80" y="603.8399999999999" width="518.42" height="116.16000000000001"/></clipPath><clipPath class="axesclip" id="clip3efa76x3y2"><rect x="80" y="467.88" width="518.42" height="116.16"/></clipPath><clipPath class="axesclip" id="clip3efa76x3y3"><rect x="80" y="331.91999999999996" width="518.42" height="116.16000000000003"/></clipPath><clipPath class="axesclip" id="clip3efa76x3y4"><rect x="80" y="195.95999999999998" width="518.42" height="116.16000000000003"/></clipPath><clipPath class="axesclip" id="clip3efa76x3y5"><rect x="80" y="60" width="518.42" height="116.15999999999995"/></clipPath><clipPath class="axesclip" id="clip3efa76x4"><rect x="80" y="0" width="518.42" height="800"/></clipPath><clipPath class="axesclip" id="clip3efa76x4y"><rect x="80" y="603.8399999999999" width="518.42" height="116.16000000000001"/></clipPath><clipPath class="axesclip" id="clip3efa76x4y2"><rect x="80" y="467.88" width="518.42" height="116.16"/></clipPath><clipPath class="axesclip" id="clip3efa76x4y3"><rect x="80" y="331.91999999999996" width="518.42" height="116.16000000000003"/></clipPath><clipPath class="axesclip" id="clip3efa76x4y4"><rect x="80" y="195.95999999999998" width="518.42" height="116.16000000000003"/></clipPath><clipPath class="axesclip" id="clip3efa76x4y5"><rect x="80" y="60" width="518.42" height="116.15999999999995"/></clipPath><clipPath class="axesclip" id="clip3efa76x5"><rect x="80" y="0" width="518.42" height="800"/></clipPath><clipPath class="axesclip" id="clip3efa76x5y"><rect x="80" y="603.8399999999999" width="518.42" height="116.16000000000001"/></clipPath><clipPath class="axesclip" id="clip3efa76x5y2"><rect x="80" y="467.88" width="518.42" height="116.16"/></clipPath><clipPath class="axesclip" id="clip3efa76x5y3"><rect x="80" y="331.91999999999996" width="518.42" height="116.16000000000003"/></clipPath><clipPath class="axesclip" id="clip3efa76x5y4"><rect x="80" y="195.95999999999998" width="518.42" height="116.16000000000003"/></clipPath><clipPath class="axesclip" id="clip3efa76x5y5"><rect x="80" y="60" width="518.42" height="116.15999999999995"/></clipPath></g><g class="gradients"/><g class="patterns"/></defs><g class="bglayer"><rect class="bg" x="80" y="603.8399999999999" width="518.42" height="116.16000000000001" style="fill: rgb(229, 236, 246); fill-opacity: 1; stroke-width: 0;"/><rect class="bg" x="80" y="467.88" width="518.42" height="116.16" style="fill: rgb(229, 236, 246); fill-opacity: 1; stroke-width: 0;"/><rect class="bg" x="80" y="331.91999999999996" width="518.42" height="116.16000000000003" style="fill: rgb(229, 236, 246); fill-opacity: 1; stroke-width: 0;"/><rect class="bg" x="80" y="195.95999999999998" width="518.42" height="116.16000000000003" style="fill: rgb(229, 236, 246); fill-opacity: 1; stroke-width: 0;"/><rect class="bg" x="80" y="60" width="518.42" height="116.15999999999995" style="fill: rgb(229, 236, 246); fill-opacity: 1; stroke-width: 0;"/></g><g class="layer-below"><g class="imagelayer"/><g class="shapelayer"/></g><g class="cartesianlayer"><g class="subplot xy"><g class="layer-subplot"><g class="shapelayer"/><g class="imagelayer"/></g><g class="minor-gridlayer"><g class="x"/><g class="y"/></g><g class="gridlayer"><g class="x"><path class="xgrid crisp" transform="translate(154.92000000000002,0)" d="M0,603.8399999999999v116.16000000000001" style="stroke: rgb(255, 255, 255); stroke-opacity: 1; stroke-width: 1px;"/><path class="xgrid crisp" transform="translate(247.81,0)" d="M0,603.8399999999999v116.16000000000001" style="stroke: rgb(255, 255, 255); stroke-opacity: 1; stroke-width: 1px;"/><path class="xgrid crisp" transform="translate(337.71,0)" d="M0,603.8399999999999v116.16000000000001" style="stroke: rgb(255, 255, 255); stroke-opacity: 1; stroke-width: 1px;"/><path class="xgrid crisp" transform="translate(430.61,0)" d="M0,603.8399999999999v116.16000000000001" style="stroke: rgb(255, 255, 255); stroke-opacity: 1; stroke-width: 1px;"/><path class="xgrid crisp" transform="translate(523.5,0)" d="M0,603.8399999999999v116.16000000000001" style="stroke: rgb(255, 255, 255); stroke-opacity: 1; stroke-width: 1px;"/></g><g class="y"><path class="ygrid crisp" transform="translate(0,679.56)" d="M80,0h518.42" style="stroke: rgb(255, 255, 255); stroke-opacity: 1; stroke-width: 1px;"/></g></g><g class="zerolinelayer"><path class="yzl zl crisp" transform="translate(0,638.3999999999999)" d="M80,0h518.42" style="stroke: rgb(255, 255, 255); stroke-opacity: 1; stroke-width: 2px;"/></g><path class="xlines-below"/><path class="ylines-below"/><g class="overlines-below"/><g class="xaxislayer-below"/><g class="yaxislayer-below"/><g class="overaxes-below"/><g class="plot" transform="translate(80,603.8399999999999)" clip-path="url(#clip3efa76xyplot)"><g class="scatterlayer mlayer"><g class="trace scatter tracefa5a25" style="stroke-miterlimit: 2; opacity: 1;"><g class="fills"/><g class="errorbars"/><g class="lines"><path class="js-line" d="M3,34.65H5.99V44.1H8.99V31.12H11.99V31.02H14.98V34.56H17.98V34.56H20.98V34.56H23.97V25.98H26.97V34.56H29.97V31.61H32.96V33.48H35.96V34.56H38.96V34.56H41.95V34.56H44.95V34.56H47.95V34.56H50.94V33.44H53.94V33.43H56.94V34.56H59.93V34.56H62.93V34.56H65.93V34.56H68.92V34.56H71.92V34.56H74.92V34.56H77.91V34.56H80.91V34.56H83.91V34.56H86.9V34.56H89.9V34.56H92.9V34.56H95.89V34.56H98.89V34.56H101.89V34.56H104.88V33.54H107.88V33.52H110.88V34.56H113.87V33.42H116.87V33.46H119.87V34.56H122.86V34.56H125.86V34.56H128.86V34.56H131.85V34.56H134.85V33.6H137.85V33.3H140.84V34.56H143.84V34.56H146.84V34.56H149.83V34.56H152.83V34.56H155.83V34.56H158.82V33.53H161.82V33.5H164.82V34.56H167.81V34.56H170.81V34.56H173.81V34.56H176.8V34.56H179.8V36.01H182.8V34.56H185.79V34.56H188.79V33.42H191.79V34.56H194.78V34.56H197.78V33.42H200.78V32.53H203.77V34.56H206.77V34.56H209.77V34.56H212.76V34.56H215.76V34.56H218.76V33.43H221.75V34.56H224.75V34.56H227.75V34.56H230.74V33.54H233.74V34.56H236.74V34.56H239.73V34.56H242.73V32.46H245.73V34.56H248.72V34.56H251.72V34.56H254.72V34.56H257.71V34.56H260.71V33.27H263.7V34.56H266.7V34.56H269.7V34.56H272.69V32.8H275.69V33.45H278.69V34.56H281.68V34.56H284.68V33.46H287.68V33.49H290.67V34.56H293.67V34.56H296.67V34.56H299.66V34.56H302.66V33.49H305.66V32.2H308.65V34.56H311.65V33.52H314.65V33.03H317.64V34.56H320.64V33.58H323.64V33.03H326.63V32.21H329.63V33.47H332.63V33.52H335.62V30.55H338.62V33.5H341.62V32.14H344.61V32.72H347.61V33.21H350.61V32.43H353.6V32.42H356.6V34.56H359.6V33.48H362.59V34.95H365.59V32.89H368.59V33.5H371.58V34.56H374.58V33.46H377.58V34.56H380.57V33.62H383.57V34.56H386.57V33.47H389.56V33.51H392.56V33.53H395.56V34.56H398.55V32.75H401.55V34.56H404.55V28.21H407.54V31.75H410.54V29.74H413.54V34.48H416.53V31.78H419.53V34.56H422.53V30.79H425.52V31.72H428.52V31.5H431.52V30.13H434.51V43.64H437.51V34.33H440.51V48.13H443.5V32.9H446.5V34.42H449.5V31.19H452.49V33.32H455.49V33H458.49V33.82H461.48V57.24H464.48V34.43H467.48V33.99H470.47V31.7H473.47V31.19H476.47V30.34H479.46V36.7H482.46V33.37H485.46V110.35H488.45V27.23H491.45V13.25H494.45V32.15H497.44V19.49H500.44V5.81H503.44V29.52H506.43V27.92H509.43V34.56H512.43V28.11H515.42V34.25" style="vector-effect: non-scaling-stroke; fill: none; stroke: rgb(255, 151, 255); stroke-opacity: 1; stroke-width: 2px; opacity: 1;"/></g><g class="points"/><g class="text"/></g></g></g><g class="overplot"/><path class="xlines-above crisp" d="M0,0" style="fill: none;"/><path class="ylines-above crisp" d="M0,0" style="fill: none;"/><g class="overlines-above"/><g class="xaxislayer-above"><g class="xtick"><text text-anchor="middle" x="0" y="732.9999999999999" transform="translate(154.92000000000002,0)" style="font-family: 'Open Sans', verdana, arial, sans-serif; font-size: 12px; fill: rgb(42, 63, 95); fill-opacity: 1; white-space: pre; opacity: 1;">Oct 2023</text></g><g class="xtick"><text text-anchor="middle" x="0" y="732.9999999999999" style="font-family: 'Open Sans', verdana, arial, sans-serif; font-size: 12px; fill: rgb(42, 63, 95); fill-opacity: 1; white-space: pre; opacity: 1;" transform="translate(247.81,0)">Nov 2023</text></g><g class="xtick"><text text-anchor="middle" x="0" y="732.9999999999999" style="font-family: 'Open Sans', verdana, arial, sans-serif; font-size: 12px; fill: rgb(42, 63, 95); fill-opacity: 1; white-space: pre; opacity: 1;" transform="translate(337.71,0)">Dec 2023</text></g><g class="xtick"><text text-anchor="middle" x="0" y="732.9999999999999" style="font-family: 'Open Sans', verdana, arial, sans-serif; font-size: 12px; fill: rgb(42, 63, 95); fill-opacity: 1; white-space: pre; opacity: 1;" transform="translate(430.61,0)">Jan 2024</text></g><g class="xtick"><text text-anchor="middle" x="0" y="732.9999999999999" style="font-family: 'Open Sans', verdana, arial, sans-serif; font-size: 12px; fill: rgb(42, 63, 95); fill-opacity: 1; white-space: pre; opacity: 1;" transform="translate(523.5,0)">Feb 2024</text></g></g><g class="yaxislayer-above"><g class="ytick"><text text-anchor="end" x="79" y="4.199999999999999" transform="translate(0,679.56)" style="font-family: 'Open Sans', verdana, arial, sans-serif; font-size: 12px; fill: rgb(42, 63, 95); fill-opacity: 1; white-space: pre; opacity: 1;">−20k</text></g><g class="ytick"><text text-anchor="end" x="79" y="4.199999999999999" style="font-family: 'Open Sans', verdana, arial, sans-serif; font-size: 12px; fill: rgb(42, 63, 95); fill-opacity: 1; white-space: pre; opacity: 1;" transform="translate(0,638.3999999999999)">0</text></g></g><g class="overaxes-above"/></g><g class="subplot x2y2"><g class="layer-subplot"><g class="shapelayer"/><g class="imagelayer"/></g><g class="minor-gridlayer"><g class="x2"/><g class="y2"/></g><g class="gridlayer"><g class="x2"><path class="x2grid crisp" transform="translate(154.92000000000002,0)" d="M0,467.88v116.16" style="stroke: rgb(255, 255, 255); stroke-opacity: 1; stroke-width: 1px;"/><path class="x2grid crisp" transform="translate(247.81,0)" d="M0,467.88v116.16" style="stroke: rgb(255, 255, 255); stroke-opacity: 1; stroke-width: 1px;"/><path class="x2grid crisp" transform="translate(337.71,0)" d="M0,467.88v116.16" style="stroke: rgb(255, 255, 255); stroke-opacity: 1; stroke-width: 1px;"/><path class="x2grid crisp" transform="translate(430.61,0)" d="M0,467.88v116.16" style="stroke: rgb(255, 255, 255); stroke-opacity: 1; stroke-width: 1px;"/><path class="x2grid crisp" transform="translate(523.5,0)" d="M0,467.88v116.16" style="stroke: rgb(255, 255, 255); stroke-opacity: 1; stroke-width: 1px;"/></g><g class="y2"><path class="y2grid crisp" transform="translate(0,540.99)" d="M80,0h518.42" style="stroke: rgb(255, 255, 255); stroke-opacity: 1; stroke-width: 1px;"/><path class="y2grid crisp" transform="translate(0,501.25)" d="M80,0h518.42" style="stroke: rgb(255, 255, 255); stroke-opacity: 1; stroke-width: 1px;"/></g></g><g class="zerolinelayer"><path class="y2zl zl crisp" transform="translate(0,580.74)" d="M80,0h518.42" style="stroke: rgb(255, 255, 255); stroke-opacity: 1; stroke-width: 2px;"/></g><path class="xlines-below"/><path class="ylines-below"/><g class="overlines-below"/><g class="xaxislayer-below"/><g class="yaxislayer-below"/><g class="overaxes-below"/><g class="plot" transform="translate(80,467.88)" clip-path="url(#clip3efa76x2y2plot)"><g class="scatterlayer mlayer"><g class="trace scatter traceba2bbf" style="stroke-miterlimit: 2; opacity: 1;"><g class="fills"/><g class="errorbars"/><g class="lines"><path class="js-line" d="M362.59,106.54H362.59V110.35H422.53V101.97H455.49V93.9H458.49V89.19H470.47V75.42H473.47V69.85H473.47V66.97H482.46V55.47H488.45V49.7H491.45V40.21H497.44V31.84H500.44V5.81" style="vector-effect: non-scaling-stroke; fill: none; stroke: rgb(255, 102, 146); stroke-opacity: 1; stroke-width: 2px; opacity: 1;"/></g><g class="points"/><g class="text"/></g></g></g><g class="overplot"/><path class="xlines-above crisp" d="M0,0" style="fill: none;"/><path class="ylines-above crisp" d="M0,0" style="fill: none;"/><g class="overlines-above"/><g class="xaxislayer-above"/><g class="yaxislayer-above"><g class="y2tick"><text text-anchor="end" x="79" y="4.199999999999999" transform="translate(0,580.74)" style="font-family: 'Open Sans', verdana, arial, sans-serif; font-size: 12px; fill: rgb(42, 63, 95); fill-opacity: 1; white-space: pre; opacity: 1;">0</text></g><g class="y2tick"><text text-anchor="end" x="79" y="4.199999999999999" style="font-family: 'Open Sans', verdana, arial, sans-serif; font-size: 12px; fill: rgb(42, 63, 95); fill-opacity: 1; white-space: pre; opacity: 1;" transform="translate(0,540.99)">2000</text></g><g class="y2tick"><text text-anchor="end" x="79" y="4.199999999999999" style="font-family: 'Open Sans', verdana, arial, sans-serif; font-size: 12px; fill: rgb(42, 63, 95); fill-opacity: 1; white-space: pre; opacity: 1;" transform="translate(0,501.25)">4000</text></g></g><g class="overaxes-above"/></g><g class="subplot x3y3"><g class="layer-subplot"><g class="shapelayer"/><g class="imagelayer"/></g><g class="minor-gridlayer"><g class="x3"/><g class="y3"/></g><g class="gridlayer"><g class="x3"><path class="x3grid crisp" transform="translate(154.92000000000002,0)" d="M0,331.91999999999996v116.16000000000003" style="stroke: rgb(255, 255, 255); stroke-opacity: 1; stroke-width: 1px;"/><path class="x3grid crisp" transform="translate(247.81,0)" d="M0,331.91999999999996v116.16000000000003" style="stroke: rgb(255, 255, 255); stroke-opacity: 1; stroke-width: 1px;"/><path class="x3grid crisp" transform="translate(337.71,0)" d="M0,331.91999999999996v116.16000000000003" style="stroke: rgb(255, 255, 255); stroke-opacity: 1; stroke-width: 1px;"/><path class="x3grid crisp" transform="translate(430.61,0)" d="M0,331.91999999999996v116.16000000000003" style="stroke: rgb(255, 255, 255); stroke-opacity: 1; stroke-width: 1px;"/><path class="x3grid crisp" transform="translate(523.5,0)" d="M0,331.91999999999996v116.16000000000003" style="stroke: rgb(255, 255, 255); stroke-opacity: 1; stroke-width: 1px;"/></g><g class="y3"><path class="y3grid crisp" transform="translate(0,411.90999999999997)" d="M80,0h518.42" style="stroke: rgb(255, 255, 255); stroke-opacity: 1; stroke-width: 1px;"/><path class="y3grid crisp" transform="translate(0,374.19999999999993)" d="M80,0h518.42" style="stroke: rgb(255, 255, 255); stroke-opacity: 1; stroke-width: 1px;"/><path class="y3grid crisp" transform="translate(0,336.47999999999996)" d="M80,0h518.42" style="stroke: rgb(255, 255, 255); stroke-opacity: 1; stroke-width: 1px;"/></g></g><g class="zerolinelayer"/><path class="xlines-below"/><path class="ylines-below"/><g class="overlines-below"/><g class="xaxislayer-below"/><g class="yaxislayer-below"/><g class="overaxes-below"/><g class="plot" transform="translate(80,331.91999999999996)" clip-path="url(#clip3efa76x3y3plot)"><g class="scatterlayer mlayer"><g class="trace scatter traceeee0c3" style="stroke-miterlimit: 2; opacity: 1;"><g class="fills"/><g class="errorbars"/><g class="lines"><path class="js-line" d="M392.56,110.35H395.56V110.35H398.55V107.73H401.55V107.73H404.55V84.46H407.54V77.07H410.54V63.68H413.54V63.39H416.53V55.74H419.53V55.74H422.53V45.1H425.52V39.19H428.52V35.06H431.52V22.56H434.51V18.88H437.51V18.04H440.51V67.79H443.5V61.73H446.5V61.21H449.5V48.88H452.49V44.34H455.49V41.69H458.49V40.78H461.48V38.21H464.48V37.75H467.48V35.65H470.47V30.41H473.47V21.28H476.47V5.81H479.46V13.67H482.46V13.67H485.46V12.7H488.45V10.76H491.45V11.15H494.45V11.1H503.44V11.06" style="vector-effect: non-scaling-stroke; fill: none; stroke: rgb(255, 161, 90); stroke-opacity: 1; stroke-width: 2px; opacity: 1;"/></g><g class="points"/><g class="text"/></g><g class="trace scatter trace03646f" style="stroke-miterlimit: 2; opacity: 1;"><g class="fills"/><g class="errorbars"/><g class="lines"><path class="js-line" d="M482.46,93H485.46V86.91H488.45V84.43H491.45V77.74H494.45V77.47H497.44V73.58H503.44V70.84H512.43V64.27" style="vector-effect: non-scaling-stroke; fill: none; stroke: rgb(25, 211, 243); stroke-opacity: 1; stroke-width: 2px; opacity: 1;"/></g><g class="points"/><g class="text"/></g></g></g><g class="overplot"/><path class="xlines-above crisp" d="M0,0" style="fill: none;"/><path class="ylines-above crisp" d="M0,0" style="fill: none;"/><g class="overlines-above"/><g class="xaxislayer-above"/><g class="yaxislayer-above"><g class="y3tick"><text text-anchor="end" x="79" y="4.199999999999999" transform="translate(0,411.90999999999997)" style="font-family: 'Open Sans', verdana, arial, sans-serif; font-size: 12px; fill: rgb(42, 63, 95); fill-opacity: 1; white-space: pre; opacity: 1;">5k</text></g><g class="y3tick"><text text-anchor="end" x="79" y="4.199999999999999" style="font-family: 'Open Sans', verdana, arial, sans-serif; font-size: 12px; fill: rgb(42, 63, 95); fill-opacity: 1; white-space: pre; opacity: 1;" transform="translate(0,374.19999999999993)">10k</text></g><g class="y3tick"><text text-anchor="end" x="79" y="4.199999999999999" style="font-family: 'Open Sans', verdana, arial, sans-serif; font-size: 12px; fill: rgb(42, 63, 95); fill-opacity: 1; white-space: pre; opacity: 1;" transform="translate(0,336.47999999999996)">15k</text></g></g><g class="overaxes-above"/></g><g class="subplot x4y4"><g class="layer-subplot"><g class="shapelayer"/><g class="imagelayer"/></g><g class="minor-gridlayer"><g class="x4"/><g class="y4"/></g><g class="gridlayer"><g class="x4"><path class="x4grid crisp" transform="translate(154.92000000000002,0)" d="M0,195.95999999999998v116.16000000000003" style="stroke: rgb(255, 255, 255); stroke-opacity: 1; stroke-width: 1px;"/><path class="x4grid crisp" transform="translate(247.81,0)" d="M0,195.95999999999998v116.16000000000003" style="stroke: rgb(255, 255, 255); stroke-opacity: 1; stroke-width: 1px;"/><path class="x4grid crisp" transform="translate(337.71,0)" d="M0,195.95999999999998v116.16000000000003" style="stroke: rgb(255, 255, 255); stroke-opacity: 1; stroke-width: 1px;"/><path class="x4grid crisp" transform="translate(430.61,0)" d="M0,195.95999999999998v116.16000000000003" style="stroke: rgb(255, 255, 255); stroke-opacity: 1; stroke-width: 1px;"/><path class="x4grid crisp" transform="translate(523.5,0)" d="M0,195.95999999999998v116.16000000000003" style="stroke: rgb(255, 255, 255); stroke-opacity: 1; stroke-width: 1px;"/></g><g class="y4"><path class="y4grid crisp" transform="translate(0,306.11)" d="M80,0h518.42" style="stroke: rgb(255, 255, 255); stroke-opacity: 1; stroke-width: 1px;"/><path class="y4grid crisp" transform="translate(0,280.66999999999996)" d="M80,0h518.42" style="stroke: rgb(255, 255, 255); stroke-opacity: 1; stroke-width: 1px;"/><path class="y4grid crisp" transform="translate(0,255.23999999999998)" d="M80,0h518.42" style="stroke: rgb(255, 255, 255); stroke-opacity: 1; stroke-width: 1px;"/><path class="y4grid crisp" transform="translate(0,229.79999999999998)" d="M80,0h518.42" style="stroke: rgb(255, 255, 255); stroke-opacity: 1; stroke-width: 1px;"/><path class="y4grid crisp" transform="translate(0,204.35999999999999)" d="M80,0h518.42" style="stroke: rgb(255, 255, 255); stroke-opacity: 1; stroke-width: 1px;"/></g></g><g class="zerolinelayer"/><path class="xlines-below"/><path class="ylines-below"/><g class="overlines-below"/><g class="xaxislayer-below"/><g class="yaxislayer-below"/><g class="overaxes-below"/><g class="plot" transform="translate(80,195.95999999999998)" clip-path="url(#clip3efa76x4y4plot)"><g class="scatterlayer mlayer"><g class="trace scatter tracee999d4" style="stroke-miterlimit: 2; opacity: 1;"><g class="fills"/><g class="errorbars"/><g class="lines"><path class="js-line" d="M332.63,105.37H335.62V76.72H338.62V50.68H344.61V31.24H353.6V5.81" style="vector-effect: non-scaling-stroke; fill: none; stroke: rgb(171, 99, 250); stroke-opacity: 1; stroke-width: 2px; opacity: 1;"/></g><g class="points"/><g class="text"/></g><g class="trace scatter traceff266a" style="stroke-miterlimit: 2; opacity: 1;"><g class="fills"/><g class="errorbars"/><g class="lines"><path class="js-line" d="M176.8,74.38H179.8V110.35" style="vector-effect: non-scaling-stroke; fill: none; stroke: rgb(182, 232, 128); stroke-opacity: 1; stroke-width: 2px; opacity: 1;"/></g><g class="points"/><g class="text"/></g></g></g><g class="overplot"/><path class="xlines-above crisp" d="M0,0" style="fill: none;"/><path class="ylines-above crisp" d="M0,0" style="fill: none;"/><g class="overlines-above"/><g class="xaxislayer-above"/><g class="yaxislayer-above"><g class="y4tick"><text text-anchor="end" x="79" y="4.199999999999999" transform="translate(0,306.11)" style="font-family: 'Open Sans', verdana, arial, sans-serif; font-size: 12px; fill: rgb(42, 63, 95); fill-opacity: 1; white-space: pre; opacity: 1;">1000</text></g><g class="y4tick"><text text-anchor="end" x="79" y="4.199999999999999" style="font-family: 'Open Sans', verdana, arial, sans-serif; font-size: 12px; fill: rgb(42, 63, 95); fill-opacity: 1; white-space: pre; opacity: 1;" transform="translate(0,280.66999999999996)">1500</text></g><g class="y4tick"><text text-anchor="end" x="79" y="4.199999999999999" style="font-family: 'Open Sans', verdana, arial, sans-serif; font-size: 12px; fill: rgb(42, 63, 95); fill-opacity: 1; white-space: pre; opacity: 1;" transform="translate(0,255.23999999999998)">2000</text></g><g class="y4tick"><text text-anchor="end" x="79" y="4.199999999999999" style="font-family: 'Open Sans', verdana, arial, sans-serif; font-size: 12px; fill: rgb(42, 63, 95); fill-opacity: 1; white-space: pre; opacity: 1;" transform="translate(0,229.79999999999998)">2500</text></g><g class="y4tick"><text text-anchor="end" x="79" y="4.199999999999999" style="font-family: 'Open Sans', verdana, arial, sans-serif; font-size: 12px; fill: rgb(42, 63, 95); fill-opacity: 1; white-space: pre; opacity: 1;" transform="translate(0,204.35999999999999)">3000</text></g></g><g class="overaxes-above"/></g><g class="subplot x5y5"><g class="layer-subplot"><g class="shapelayer"/><g class="imagelayer"/></g><g class="minor-gridlayer"><g class="x5"/><g class="y5"/></g><g class="gridlayer"><g class="x5"><path class="x5grid crisp" transform="translate(154.92000000000002,0)" d="M0,60v116.15999999999995" style="stroke: rgb(255, 255, 255); stroke-opacity: 1; stroke-width: 1px;"/><path class="x5grid crisp" transform="translate(247.81,0)" d="M0,60v116.15999999999995" style="stroke: rgb(255, 255, 255); stroke-opacity: 1; stroke-width: 1px;"/><path class="x5grid crisp" transform="translate(337.71,0)" d="M0,60v116.15999999999995" style="stroke: rgb(255, 255, 255); stroke-opacity: 1; stroke-width: 1px;"/><path class="x5grid crisp" transform="translate(430.61,0)" d="M0,60v116.15999999999995" style="stroke: rgb(255, 255, 255); stroke-opacity: 1; stroke-width: 1px;"/><path class="x5grid crisp" transform="translate(523.5,0)" d="M0,60v116.15999999999995" style="stroke: rgb(255, 255, 255); stroke-opacity: 1; stroke-width: 1px;"/></g><g class="y5"><path class="y5grid crisp" transform="translate(0,146.45999999999998)" d="M80,0h518.42" style="stroke: rgb(255, 255, 255); stroke-opacity: 1; stroke-width: 1px;"/><path class="y5grid crisp" transform="translate(0,120.08)" d="M80,0h518.42" style="stroke: rgb(255, 255, 255); stroke-opacity: 1; stroke-width: 1px;"/><path class="y5grid crisp" transform="translate(0,93.69)" d="M80,0h518.42" style="stroke: rgb(255, 255, 255); stroke-opacity: 1; stroke-width: 1px;"/><path class="y5grid crisp" transform="translate(0,67.3)" d="M80,0h518.42" style="stroke: rgb(255, 255, 255); stroke-opacity: 1; stroke-width: 1px;"/></g></g><g class="zerolinelayer"><path class="y5zl zl crisp" transform="translate(0,172.85)" d="M80,0h518.42" style="stroke: rgb(255, 255, 255); stroke-opacity: 1; stroke-width: 2px;"/></g><path class="xlines-below"/><path class="ylines-below"/><g class="overlines-below"/><g class="xaxislayer-below"/><g class="yaxislayer-below"/><g class="overaxes-below"/><g class="plot" transform="translate(80,60)" clip-path="url(#clip3efa76x5y5plot)"><g class="scatterlayer mlayer"><g class="trace scatter trace5448ea" style="stroke-miterlimit: 2; opacity: 1;"><g class="fills"/><g class="errorbars"/><g class="lines"><path class="js-line" d="M26.97,89.96H29.97V89.65H32.96V88.27H50.94V86.84H53.94V85.4H104.88V84.1H107.88V82.76H113.87V81.3H116.87V79.89H134.85V78.66H137.85V77.05H158.82V75.73H161.82V74.37H188.79V72.91H197.78V71.45H200.78V68.84H218.76V67.4H230.74V66.09H242.73V63.4H260.71V61.75H272.69V59.5H275.69V58.08H284.68V56.68H287.68V55.31H302.66V53.94H305.66V50.91H311.65V49.57H314.65V47.61H320.64V46.35H323.64V44.39H332.63V43.07H335.62V41.22H341.62V39.51" style="vector-effect: non-scaling-stroke; fill: none; stroke: rgb(99, 110, 250); stroke-opacity: 1; stroke-width: 2px; opacity: 1;"/></g><g class="points"/><g class="text"/></g><g class="trace scatter trace67d094" style="stroke-miterlimit: 2; opacity: 1;"><g class="fills"/><g class="errorbars"/><g class="lines"><path class="js-line" d="M0,21.75H3V21.87H5.99V34.11H8.99V29.71H11.99V25.17H23.97V14.17H29.97V10.7H485.46V110.35H488.45V103.27H491.45V79.42H494.45V76.44H497.44V59.59H500.44V26.19H503.44V20.7H506.43V12.19H512.43V6.21H515.42V5.81" style="vector-effect: non-scaling-stroke; fill: none; stroke: rgb(239, 85, 59); stroke-opacity: 1; stroke-width: 2px; opacity: 1;"/></g><g class="points"/><g class="text"/></g><g class="trace scatter trace1dcd64" style="stroke-miterlimit: 2; opacity: 1;"><g class="fills"/><g class="errorbars"/><g class="lines"><path class="js-line" d="M323.64,99.71H326.63V96.69H329.63V95.29H335.62V93.48H341.62V92.09H344.61V90.74H347.61V89.02H350.61V86.29H353.6V84.86H359.6V83.47H365.59V81.34H368.59V79.98H374.58V78.57H380.57V77.37H386.57V75.97H389.56V74.63H392.56V73.31H398.55V71.9H407.54V70.88H410.54V69.39H416.53V68.5H425.52V66.93H428.52V64.45H431.52V63.14H434.51V76.07H461.48V106.05" style="vector-effect: non-scaling-stroke; fill: none; stroke: rgb(0, 204, 150); stroke-opacity: 1; stroke-width: 2px; opacity: 1;"/></g><g class="points"/><g class="text"/></g></g></g><g class="overplot"/><path class="xlines-above crisp" d="M0,0" style="fill: none;"/><path class="ylines-above crisp" d="M0,0" style="fill: none;"/><g class="overlines-above"/><g class="xaxislayer-above"/><g class="yaxislayer-above"><g class="y5tick"><text text-anchor="end" x="79" y="4.199999999999999" transform="translate(0,172.85)" style="font-family: 'Open Sans', verdana, arial, sans-serif; font-size: 12px; fill: rgb(42, 63, 95); fill-opacity: 1; white-space: pre; opacity: 1;">0</text></g><g class="y5tick"><text text-anchor="end" x="79" y="4.199999999999999" style="font-family: 'Open Sans', verdana, arial, sans-serif; font-size: 12px; fill: rgb(42, 63, 95); fill-opacity: 1; white-space: pre; opacity: 1;" transform="translate(0,146.45999999999998)">10k</text></g><g class="y5tick"><text text-anchor="end" x="79" y="4.199999999999999" style="font-family: 'Open Sans', verdana, arial, sans-serif; font-size: 12px; fill: rgb(42, 63, 95); fill-opacity: 1; white-space: pre; opacity: 1;" transform="translate(0,120.08)">20k</text></g><g class="y5tick"><text text-anchor="end" x="79" y="4.199999999999999" style="font-family: 'Open Sans', verdana, arial, sans-serif; font-size: 12px; fill: rgb(42, 63, 95); fill-opacity: 1; white-space: pre; opacity: 1;" transform="translate(0,93.69)">30k</text></g><g class="y5tick"><text text-anchor="end" x="79" y="4.199999999999999" style="font-family: 'Open Sans', verdana, arial, sans-serif; font-size: 12px; fill: rgb(42, 63, 95); fill-opacity: 1; white-space: pre; opacity: 1;" transform="translate(0,67.3)">40k</text></g></g><g class="overaxes-above"/></g></g><g class="polarlayer"/><g class="smithlayer"/><g class="ternarylayer"/><g class="geolayer"/><g class="funnelarealayer"/><g class="pielayer"/><g class="iciclelayer"/><g class="treemaplayer"/><g class="sunburstlayer"/><g class="glimages"/><defs id="topdefs-3efa76"><g class="clips"/><clipPath id="legend3efa76"><rect width="168" height="200" x="0" y="0"/></clipPath></defs><g class="layer-above"><g class="imagelayer"/><g class="shapelayer"/></g><g class="infolayer"><g class="legend" pointer-events="all" transform="translate(619.58,60)"><rect class="bg" shape-rendering="crispEdges" style="stroke: rgb(68, 68, 68); stroke-opacity: 1; fill: rgb(255, 255, 255); fill-opacity: 1; stroke-width: 0px;" width="168" height="200" x="0" y="0"/><g class="scrollbox" transform="" clip-path="url(#legend3efa76)"><text class="legendtitletext" text-anchor="start" x="2" y="18.2" style="font-family: 'Open Sans', verdana, arial, sans-serif; font-size: 14px; fill: rgb(42, 63, 95); fill-opacity: 1; white-space: pre;">title</text><g class="groups" transform=""><g class="traces" transform="translate(0,32.7)" style="opacity: 1;"><text class="legendtext" text-anchor="start" x="40" y="4.680000000000001" style="font-family: 'Open Sans', verdana, arial, sans-serif; font-size: 12px; fill: rgb(42, 63, 95); fill-opacity: 1; white-space: pre;">All the Other Santas</text><g class="layers" style="opacity: 1;"><g class="legendfill"/><g class="legendlines"><path class="js-line" d="M5,0h30" style="fill: none; stroke: rgb(99, 110, 250); stroke-opacity: 1; stroke-width: 2px;"/></g><g class="legendsymbols"><g class="legendpoints"/></g></g><rect class="legendtoggle" x="0" y="-9.5" width="162.15625" height="19" style="fill: rgb(0, 0, 0); fill-opacity: 0;"/></g></g><g class="groups" transform=""><g class="traces" transform="translate(0,51.7)" style="opacity: 1;"><text class="legendtext" text-anchor="start" x="40" y="4.680000000000001" style="font-family: 'Open Sans', verdana, arial, sans-serif; font-size: 12px; fill: rgb(42, 63, 95); fill-opacity: 1; white-space: pre;">Iffy</text><g class="layers" style="opacity: 1;"><g class="legendfill"/><g class="legendlines"><path class="js-line" d="M5,0h30" style="fill: none; stroke: rgb(239, 85, 59); stroke-opacity: 1; stroke-width: 2px;"/></g><g class="legendsymbols"><g class="legendpoints"/></g></g><rect class="legendtoggle" x="0" y="-9.5" width="162.15625" height="19" style="fill: rgb(0, 0, 0); fill-opacity: 0;"/></g></g><g class="groups" transform=""><g class="traces" transform="translate(0,70.7)" style="opacity: 1;"><text class="legendtext" text-anchor="start" x="40" y="4.680000000000001" style="font-family: 'Open Sans', verdana, arial, sans-serif; font-size: 12px; fill: rgb(42, 63, 95); fill-opacity: 1; white-space: pre;">In Heck</text><g class="layers" style="opacity: 1;"><g class="legendfill"/><g class="legendlines"><path class="js-line" d="M5,0h30" style="fill: none; stroke: rgb(0, 204, 150); stroke-opacity: 1; stroke-width: 2px;"/></g><g class="legendsymbols"><g class="legendpoints"/></g></g><rect class="legendtoggle" x="0" y="-9.5" width="162.15625" height="19" style="fill: rgb(0, 0, 0); fill-opacity: 0;"/></g></g><g class="groups" transform=""><g class="traces" transform="translate(0,89.7)" style="opacity: 1;"><text class="legendtext" text-anchor="start" x="40" y="4.680000000000001" style="font-family: 'Open Sans', verdana, arial, sans-serif; font-size: 12px; fill: rgb(42, 63, 95); fill-opacity: 1; white-space: pre;">Leaderboard</text><g class="layers" style="opacity: 1;"><g class="legendfill"/><g class="legendlines"><path class="js-line" d="M5,0h30" style="fill: none; stroke: rgb(171, 99, 250); stroke-opacity: 1; stroke-width: 2px;"/></g><g class="legendsymbols"><g class="legendpoints"/></g></g><rect class="legendtoggle" x="0" y="-9.5" width="162.15625" height="19" style="fill: rgb(0, 0, 0); fill-opacity: 0;"/></g></g><g class="groups" transform=""><g class="traces" transform="translate(0,108.7)" style="opacity: 1;"><text class="legendtext" text-anchor="start" x="40" y="4.680000000000001" style="font-family: 'Open Sans', verdana, arial, sans-serif; font-size: 12px; fill: rgb(42, 63, 95); fill-opacity: 1; white-space: pre;">SQL Tutorial</text><g class="layers" style="opacity: 1;"><g class="legendfill"/><g class="legendlines"><path class="js-line" d="M5,0h30" style="fill: none; stroke: rgb(255, 161, 90); stroke-opacity: 1; stroke-width: 2px;"/></g><g class="legendsymbols"><g class="legendpoints"/></g></g><rect class="legendtoggle" x="0" y="-9.5" width="162.15625" height="19" style="fill: rgb(0, 0, 0); fill-opacity: 0;"/></g></g><g class="groups" transform=""><g class="traces" transform="translate(0,127.7)" style="opacity: 1;"><text class="legendtext" text-anchor="start" x="40" y="4.680000000000001" style="font-family: 'Open Sans', verdana, arial, sans-serif; font-size: 12px; fill: rgb(42, 63, 95); fill-opacity: 1; white-space: pre;">Safety Tutorial</text><g class="layers" style="opacity: 1;"><g class="legendfill"/><g class="legendlines"><path class="js-line" d="M5,0h30" style="fill: none; stroke: rgb(25, 211, 243); stroke-opacity: 1; stroke-width: 2px;"/></g><g class="legendsymbols"><g class="legendpoints"/></g></g><rect class="legendtoggle" x="0" y="-9.5" width="162.15625" height="19" style="fill: rgb(0, 0, 0); fill-opacity: 0;"/></g></g><g class="groups" transform=""><g class="traces" transform="translate(0,146.7)" style="opacity: 1;"><text class="legendtext" text-anchor="start" x="40" y="4.680000000000001" style="font-family: 'Open Sans', verdana, arial, sans-serif; font-size: 12px; fill: rgb(42, 63, 95); fill-opacity: 1; white-space: pre;">Scribophile</text><g class="layers" style="opacity: 1;"><g class="legendfill"/><g class="legendlines"><path class="js-line" d="M5,0h30" style="fill: none; stroke: rgb(255, 102, 146); stroke-opacity: 1; stroke-width: 2px;"/></g><g class="legendsymbols"><g class="legendpoints"/></g></g><rect class="legendtoggle" x="0" y="-9.5" width="162.15625" height="19" style="fill: rgb(0, 0, 0); fill-opacity: 0;"/></g></g><g class="groups" transform=""><g class="traces" transform="translate(0,165.7)" style="opacity: 1;"><text class="legendtext" text-anchor="start" x="40" y="4.680000000000001" style="font-family: 'Open Sans', verdana, arial, sans-serif; font-size: 12px; fill: rgb(42, 63, 95); fill-opacity: 1; white-space: pre;">Tuppence a Bag</text><g class="layers" style="opacity: 1;"><g class="legendfill"/><g class="legendlines"><path class="js-line" d="M5,0h30" style="fill: none; stroke: rgb(182, 232, 128); stroke-opacity: 1; stroke-width: 2px;"/></g><g class="legendsymbols"><g class="legendpoints"/></g></g><rect class="legendtoggle" x="0" y="-9.5" width="162.15625" height="19" style="fill: rgb(0, 0, 0); fill-opacity: 0;"/></g></g><g class="groups" transform=""><g class="traces" transform="translate(0,184.7)" style="opacity: 1;"><text class="legendtext" text-anchor="start" x="40" y="4.680000000000001" style="font-family: 'Open Sans', verdana, arial, sans-serif; font-size: 12px; fill: rgb(42, 63, 95); fill-opacity: 1; white-space: pre;">change</text><g class="layers" style="opacity: 1;"><g class="legendfill"/><g class="legendlines"><path class="js-line" d="M5,0h30" style="fill: none; stroke: rgb(255, 151, 255); stroke-opacity: 1; stroke-width: 2px;"/></g><g class="legendsymbols"><g class="legendpoints"/></g></g><rect class="legendtoggle" x="0" y="-9.5" width="162.15625" height="19" style="fill: rgb(0, 0, 0); fill-opacity: 0;"/></g></g></g><rect class="scrollbar" rx="20" ry="3" width="0" height="0" style="fill: rgb(128, 139, 164); fill-opacity: 1;" x="0" y="0"/></g><g class="g-gtitle"/><g class="g-xtitle"><text class="xtitle" x="339.21" y="760.3" text-anchor="middle" style="font-family: 'Open Sans', verdana, arial, sans-serif; font-size: 14px; fill: rgb(42, 63, 95); opacity: 1; font-weight: normal; white-space: pre;">date</text></g><g class="g-x2title"/><g class="g-x3title"/><g class="g-x4title"/><g class="g-x5title"/><g class="g-ytitle"><text class="ytitle" transform="rotate(-90,22.012500000000003,661.92)" x="22.012500000000003" y="661.92" text-anchor="middle" style="font-family: 'Open Sans', verdana, arial, sans-serif; font-size: 14px; fill: rgb(42, 63, 95); opacity: 1; font-weight: normal; white-space: pre;">words</text></g><g class="g-y2title"><text class="y2title" transform="rotate(-90,23.684375000000003,525.96)" x="23.684375000000003" y="525.96" text-anchor="middle" style="font-family: 'Open Sans', verdana, arial, sans-serif; font-size: 14px; fill: rgb(42, 63, 95); opacity: 1; font-weight: normal; white-space: pre;">words</text></g><g class="g-y3title"><text class="y3title" transform="rotate(-90,31.840625000000003,390)" x="31.840625000000003" y="390" text-anchor="middle" style="font-family: 'Open Sans', verdana, arial, sans-serif; font-size: 14px; fill: rgb(42, 63, 95); opacity: 1; font-weight: normal; white-space: pre;">words</text></g><g class="g-y4title"><text class="y4title" transform="rotate(-90,23.684375000000003,254.04)" x="23.684375000000003" y="254.04" text-anchor="middle" style="font-family: 'Open Sans', verdana, arial, sans-serif; font-size: 14px; fill: rgb(42, 63, 95); opacity: 1; font-weight: normal; white-space: pre;">words</text></g><g class="g-y5title"><text class="y5title" transform="rotate(-90,31.840625000000003,118.07999999999998)" x="31.840625000000003" y="118.07999999999998" text-anchor="middle" style="font-family: 'Open Sans', verdana, arial, sans-serif; font-size: 14px; fill: rgb(42, 63, 95); opacity: 1; font-weight: normal; white-space: pre;">words</text></g><g class="annotation" data-index="0" style="opacity: 1;"><g class="annotation-text-g" transform="rotate(90,607.92,661.9200000000001)"><g class="cursor-pointer" transform="translate(591,652)"><rect class="bg" x="0.5" y="0.5" width="33" height="18" style="stroke-width: 1px; stroke: rgb(0, 0, 0); stroke-opacity: 0; fill: rgb(0, 0, 0); fill-opacity: 0;"/><text class="annotation-text" text-anchor="middle" x="16.9375" y="14" style="font-family: 'Open Sans', verdana, arial, sans-serif; font-size: 12px; fill: rgb(42, 63, 95); fill-opacity: 1; white-space: pre;">delta</text></g></g></g><g class="annotation" data-index="1" style="opacity: 1;"><g class="annotation-text-g" transform="rotate(90,607.92,525.96)"><g class="cursor-pointer" transform="translate(586,516)"><rect class="bg" x="0.5" y="0.5" width="43" height="18" style="stroke-width: 1px; stroke: rgb(0, 0, 0); stroke-opacity: 0; fill: rgb(0, 0, 0); fill-opacity: 0;"/><text class="annotation-text" text-anchor="middle" x="21.828125" y="14" style="font-family: 'Open Sans', verdana, arial, sans-serif; font-size: 12px; fill: rgb(42, 63, 95); fill-opacity: 1; white-space: pre;">review</text></g></g></g><g class="annotation" data-index="2" style="opacity: 1;"><g class="annotation-text-g" transform="rotate(90,607.92,390)"><g class="cursor-pointer" transform="translate(600,381)"><rect class="bg" x="0.5" y="0.5" width="15" height="18" style="stroke-width: 1px; stroke: rgb(0, 0, 0); stroke-opacity: 0; fill: rgb(0, 0, 0); fill-opacity: 0;"/><text class="annotation-text" text-anchor="middle" x="7.90625" y="14" style="font-family: 'Open Sans', verdana, arial, sans-serif; font-size: 12px; fill: rgb(42, 63, 95); fill-opacity: 1; white-space: pre;">nf</text></g></g></g><g class="annotation" data-index="3" style="opacity: 1;"><g class="annotation-text-g" transform="rotate(90,607.92,254.04000000000002)"><g class="cursor-pointer" transform="translate(590,245)"><rect class="bg" x="0.5" y="0.5" width="34" height="18" style="stroke-width: 1px; stroke: rgb(0, 0, 0); stroke-opacity: 0; fill: rgb(0, 0, 0); fill-opacity: 0;"/><text class="annotation-text" text-anchor="middle" x="17.5" y="14" style="font-family: 'Open Sans', verdana, arial, sans-serif; font-size: 12px; fill: rgb(42, 63, 95); fill-opacity: 1; white-space: pre;">short</text></g></g></g><g class="annotation" data-index="4" style="opacity: 1;"><g class="annotation-text-g" transform="rotate(90,607.92,118.07999999999998)"><g class="cursor-pointer" transform="translate(599,109)"><rect class="bg" x="0.5" y="0.5" width="17" height="18" style="stroke-width: 1px; stroke: rgb(0, 0, 0); stroke-opacity: 0; fill: rgb(0, 0, 0); fill-opacity: 0;"/><text class="annotation-text" text-anchor="middle" x="9.15625" y="14" style="font-family: 'Open Sans', verdana, arial, sans-serif; font-size: 12px; fill: rgb(42, 63, 95); fill-opacity: 1; white-space: pre;">ya</text></g></g></g></g></svg>