<svg class="main-svg" xmlns="http://www.w3.org/2000/svg" xmlns:xlink="http://www.w3.org/1999/xlink" width="800" height="800" style="" viewBox="0 0 800 800"><rect x="0" y="0" width="800" height="800" style="fill: rgb(255, 255, 255); fill-opacity: 1;"/><defs id="defs-047a9d"><g class="clips"><clipPath id="clip047a9dxyplot" class="plotclip"><rect width="518.42" height="206.79999999999998"/></clipPath><clipPath id="clip047a9dx2y2plot" class="plotclip"><rect width="518.42" height="206.79999999999993"/></clipPath><clipPath id="clip047a9dx3y3plot" class="plotclip"><rect width="518.42" height="206.79999999999993"/></clipPath><clipPath class="axesclip" id="clip047a9dx"><rect x="80" y="0" width="518.42" height="800"/></clipPath><clipPath class="axesclip" id="clip047a9dy"><rect x="0" y="513.2" width="800" height="206.79999999999998"/></clipPath><clipPath class="axesclip" id="clip047a9dxy"><rect x="80" y="513.2" width="518.42" height="206.79999999999998"/></clipPath><clipPath class="axesclip" id="clip047a9dy2"><rect x="0" y="286.60000000000014" width="800" height="206.79999999999993"/></clipPath><clipPath class="axesclip" id="clip047a9dxy2"><rect x="80" y="286.60000000000014" width="518.42" height="206.79999999999993"/></clipPath><clipPath class="axesclip" id="clip047a9dy3"><rect x="0" y="60.00000000000015" width="800" height="206.79999999999993"/></clipPath><clipPath class="axesclip" id="clip047a9dxy3"><rect x="80" y="60.00000000000015" width="518.42" height="206.79999999999993"/></clipPath><clipPath class="axesclip" id="clip047a9dx2"><rect x="80" y="0" width="518.42" height="800"/></clipPath><clipPath class="axesclip" id="clip047a9dx2y"><rect x="80" y="513.2" width="518.42" height="206.79999999999998"/></clipPath><clipPath class="axesclip" id="clip047a9dx2y2"><rect x="80" y="286.60000000000014" width="518.42" height="206.79999999999993"/></clipPath><clipPath class="axesclip" id="clip047a9dx2y3"><rect x="80" y="60.00000000000015" width="518.42" height="206.79999999999993"/></clipPath><clipPath class="axesclip" id="clip047a9dx3"><rect x="80" y="0" width="518.42" height="800"/></clipPath><clipPath class="axesclip" id="clip047a9dx3y"><rect x="80" y="513.2" width="518.42" height="206.79999999999998"/></clipPath><clipPath class="axesclip" id="clip047a9dx3y2"><rect x="80" y="286.60000000000014" width="518.42" height="206.79999999999993"/></clipPath><clipPath class="axesclip" id="clip047a9dx3y3"><rect x="80" y="60.00000000000015" width="518.42" height="206.79999999999993"/></clipPath></g><g class="gradients"/><g class="patterns"/></defs><g class="bglayer"><rect class="bg" x="80" y="513.2" width="518.42" height="206.79999999999998" style="fill: rgb(229, 236, 246); fill-opacity: 1; stroke-width: 0;"/><rect class="bg" x="80" y="286.60000000000014" width="518.42" height="206.79999999999993" style="fill: rgb(229, 236, 246); fill-opacity: 1; stroke-width: 0;"/><rect class="bg" x="80" y="60.00000000000015" width="518.42" height="206.79999999999993" style="fill: rgb(229, 236, 246); fill-opacity: 1; stroke-width: 0;"/></g><g class="layer-below"><g class="imagelayer"/><g class="shapelayer"/></g><g class="cartesianlayer"><g class="subplot xy"><g class="layer-subplot"><g class="shapelayer"/><g class="imagelayer"/></g><g class="minor-gridlayer"><g class="x"/><g class="y"/></g><g class="gridlayer"><g class="x"><path class="xgrid crisp" transform="translate(170,0)" d="M0,513.2v206.79999999999998" style="stroke: rgb(255, 255, 255); stroke-opacity: 1; stroke-width: 1px;"/><path class="xgrid crisp" transform="translate(281.61,0)" d="M0,513.2v206.79999999999998" style="stroke: rgb(255, 255, 255); stroke-opacity: 1; stroke-width: 1px;"/><path class="xgrid crisp" transform="translate(389.61,0)" d="M0,513.2v206.79999999999998" style="stroke: rgb(255, 255, 255); stroke-opacity: 1; stroke-width: 1px;"/><path class="xgrid crisp" transform="translate(501.22,0)" d="M0,513.2v206.79999999999998" style="stroke: rgb(255, 255, 255); stroke-opacity: 1; stroke-width: 1px;"/></g><g class="y"><path class="ygrid crisp" transform="translate(0,696.1800000000001)" d="M80,0h518.42" style="stroke: rgb(255, 255, 255); stroke-opacity: 1; stroke-width: 1px;"/><path class="ygrid crisp" transform="translate(0,653.9200000000001)" d="M80,0h518.42" style="stroke: rgb(255, 255, 255); stroke-opacity: 1; stroke-width: 1px;"/><path class="ygrid crisp" transform="translate(0,569.3900000000001)" d="M80,0h518.42" style="stroke: rgb(255, 255, 255); stroke-opacity: 1; stroke-width: 1px;"/><path class="ygrid crisp" transform="translate(0,527.13)" d="M80,0h518.42" style="stroke: rgb(255, 255, 255); stroke-opacity: 1; stroke-width: 1px;"/></g></g><g class="zerolinelayer"><path class="yzl zl crisp" transform="translate(0,611.6600000000001)" d="M80,0h518.42" style="stroke: rgb(255, 255, 255); stroke-opacity: 1; stroke-width: 2px;"/></g><path class="xlines-below"/><path class="ylines-below"/><g class="overlines-below"/><g class="xaxislayer-below"/><g class="yaxislayer-below"/><g class="overaxes-below"/><g class="plot" transform="translate(80,513.2)" clip-path="url(#clip047a9dxyplot)"><g class="scatterlayer mlayer"><g class="trace scatter trace078ba8" style="stroke-miterlimit: 2; opacity: 1;"><g class="fills"/><g class="errorbars"/><g class="lines"><path class="js-line" d="M3.6,99.43H7.2V196.46H10.8V63.19H14.4V62.13H18V98.46H21.6V98.46H25.2V98.46H28.8V10.34H32.4V98.46H36V68.22H39.6V87.43H43.2V98.46H46.8V98.46H50.4V98.46H54V98.46H57.6V98.46H61.2V86.96H64.8V86.92H68.4V98.46H72V98.46H75.6V98.46H79.2V98.46H82.8V98.46H86.4V98.46H90V98.46H93.6V98.46H97.2V98.46H100.8V98.46H104.4V98.46H108V98.46H111.6V98.46H115.2V98.46H118.8V98.46H122.4V98.46H126V88.02H129.6V87.76H133.21V98.46H136.81V86.77H140.41V87.13H144.01V98.46H147.61V98.46H151.21V98.46H154.81V98.46H158.41V98.46H162.01V88.65H165.61V85.52H169.21V98.46H172.81V98.46H176.41V98.46H180.01V98.46H183.61V98.46H187.21V98.46H190.81V87.89H194.41V87.59H198.01V98.46H201.61V98.46H205.21V98.46H208.81V98.46H212.41V98.46H216.01V113.39H219.61V98.46H223.21V98.46H226.81V86.75H230.41V98.46H234.01V98.46H237.61V86.75H241.21V77.6H244.81V98.46H248.41V98.46H252.01V98.46H255.61V98.46H259.21V98.46H262.81V86.9H266.41V98.46H270.01V98.46H273.61V98.46H277.21V87.95H280.81V98.46H284.41V98.46H288.01V98.46H291.61V76.92H295.21V98.46H298.81V98.46H302.41V98.46H306.01V98.46H309.61V98.46H313.21V85.27H316.81V98.46H320.41V98.46H324.01V98.46H327.61V80.39H331.21V87.11H334.81V98.46H338.41V98.46H342.01V87.21H345.61V87.47H349.21V98.46H352.81V98.46H356.41V98.46H360.01V98.46H363.61V87.51H367.21V74.2H370.81V98.46H374.41V87.74H378.01V82.73H381.61V98.46H385.21V88.4H388.82V82.78H392.42V74.35H396.02V87.23H399.62V87.83H403.22V57.25H406.82V87.64H410.42V73.67H414.02V79.59H417.62V84.61H421.22V76.61H424.82V76.46H428.42V98.46H432.02V87.34H435.62V98.46H439.22V81.36H442.82V87.59H446.42V98.46H450.02V87.17H453.62V98.46H457.22V88.8H460.82V98.46H464.42V87.28H468.02V87.7H471.62V87.87H475.22V98.46H478.82V87.21H482.42V98.46H486.02V98.46H489.62V90.28H493.22V86.47H496.82V98.46H500.42V91.4H504.02V98.46H507.62V98.46H511.22V85.84H514.82V78.61" style="vector-effect: non-scaling-stroke; fill: none; stroke: rgb(25, 211, 243); stroke-opacity: 1; stroke-width: 2px; opacity: 1;"/></g><g class="points"/><g class="text"/></g></g></g><g class="overplot"/><path class="xlines-above crisp" d="M0,0" style="fill: none;"/><path class="ylines-above crisp" d="M0,0" style="fill: none;"/><g class="overlines-above"/><g class="xaxislayer-above"><g class="xtick"><text text-anchor="middle" x="0" y="733" transform="translate(170,0)" style="font-family: 'Open Sans', verdana, arial, sans-serif; font-size: 12px; fill: rgb(42, 63, 95); fill-opacity: 1; white-space: pre; opacity: 1;">Oct 2023</text></g><g class="xtick"><text text-anchor="middle" x="0" y="733" style="font-family: 'Open Sans', verdana, arial, sans-serif; font-size: 12px; fill: rgb(42, 63, 95); fill-opacity: 1; white-space: pre; opacity: 1;" transform="translate(281.61,0)">Nov 2023</text></g><g class="xtick"><text text-anchor="middle" x="0" y="733" style="font-family: 'Open Sans', verdana, arial, sans-serif; font-size: 12px; fill: rgb(42, 63, 95); fill-opacity: 1; white-space: pre; opacity: 1;" transform="translate(389.61,0)">Dec 2023</text></g><g class="xtick"><text text-anchor="middle" x="0" y="733" style="font-family: 'Open Sans', verdana, arial, sans-serif; font-size: 12px; fill: rgb(42, 63, 95); fill-opacity: 1; white-space: pre; opacity: 1;" transform="translate(501.22,0)">Jan 2024</text></g></g><g class="yaxislayer-above"><g class="ytick"><text text-anchor="end" x="79" y="4.199999999999999" transform="translate(0,696.1800000000001)" style="font-family: 'Open Sans', verdana, arial, sans-serif; font-size: 12px; fill: rgb(42, 63, 95); fill-opacity: 1; white-space: pre; opacity: 1;">−4000</text></g><g class="ytick"><text text-anchor="end" x="79" y="4.199999999999999" style="font-family: 'Open Sans', verdana, arial, sans-serif; font-size: 12px; fill: rgb(42, 63, 95); fill-opacity: 1; white-space: pre; opacity: 1;" transform="translate(0,653.9200000000001)">−2000</text></g><g class="ytick"><text text-anchor="end" x="79" y="4.199999999999999" style="font-family: 'Open Sans', verdana, arial, sans-serif; font-size: 12px; fill: rgb(42, 63, 95); fill-opacity: 1; white-space: pre; opacity: 1;" transform="translate(0,611.6600000000001)">0</text></g><g class="ytick"><text text-anchor="end" x="79" y="4.199999999999999" style="font-family: 'Open Sans', verdana, arial, sans-serif; font-size: 12px; fill: rgb(42, 63, 95); fill-opacity: 1; white-space: pre; opacity: 1;" transform="translate(0,569.3900000000001)">2000</text></g><g class="ytick"><text text-anchor="end" x="79" y="4.199999999999999" style="font-family: 'Open Sans', verdana, arial, sans-serif; font-size: 12px; fill: rgb(42, 63, 95); fill-opacity: 1; white-space: pre; opacity: 1;" transform="translate(0,527.13)">4000</text></g></g><g class="overaxes-above"/></g><g class="subplot x2y2"><g class="layer-subplot"><g class="shapelayer"/><g class="imagelayer"/></g><g class="minor-gridlayer"><g class="x2"/><g class="y2"/></g><g class="gridlayer"><g class="x2"><path class="x2grid crisp" transform="translate(170,0)" d="M0,286.60000000000014v206.79999999999993" style="stroke: rgb(255, 255, 255); stroke-opacity: 1; stroke-width: 1px;"/><path class="x2grid crisp" transform="translate(281.61,0)" d="M0,286.60000000000014v206.79999999999993" style="stroke: rgb(255, 255, 255); stroke-opacity: 1; stroke-width: 1px;"/><path class="x2grid crisp" transform="translate(389.61,0)" d="M0,286.60000000000014v206.79999999999993" style="stroke: rgb(255, 255, 255); stroke-opacity: 1; stroke-width: 1px;"/><path class="x2grid crisp" transform="translate(501.22,0)" d="M0,286.60000000000014v206.79999999999993" style="stroke: rgb(255, 255, 255); stroke-opacity: 1; stroke-width: 1px;"/></g><g class="y2"><path class="y2grid crisp" transform="translate(0,482.70000000000016)" d="M80,0h518.42" style="stroke: rgb(255, 255, 255); stroke-opacity: 1; stroke-width: 1px;"/><path class="y2grid crisp" transform="translate(0,437.41000000000014)" d="M80,0h518.42" style="stroke: rgb(255, 255, 255); stroke-opacity: 1; stroke-width: 1px;"/><path class="y2grid crisp" transform="translate(0,392.1300000000001)" d="M80,0h518.42" style="stroke: rgb(255, 255, 255); stroke-opacity: 1; stroke-width: 1px;"/><path class="y2grid crisp" transform="translate(0,346.84000000000015)" d="M80,0h518.42" style="stroke: rgb(255, 255, 255); stroke-opacity: 1; stroke-width: 1px;"/><path class="y2grid crisp" transform="translate(0,301.5600000000001)" d="M80,0h518.42" style="stroke: rgb(255, 255, 255); stroke-opacity: 1; stroke-width: 1px;"/></g></g><g class="zerolinelayer"/><path class="xlines-below"/><path class="ylines-below"/><g class="overlines-below"/><g class="xaxislayer-below"/><g class="yaxislayer-below"/><g class="overaxes-below"/><g class="plot" transform="translate(80,286.60000000000014)" clip-path="url(#clip047a9dx2y2plot)"><g class="scatterlayer mlayer"><g class="trace scatter tracee64c28" style="stroke-miterlimit: 2; opacity: 1;"><g class="fills"/><g class="errorbars"/><g class="lines"><path class="js-line" d="M399.62,187.58H403.22V136.59H406.82V90.22H414.02V55.62H424.82V10.34" style="vector-effect: non-scaling-stroke; fill: none; stroke: rgb(171, 99, 250); stroke-opacity: 1; stroke-width: 2px; opacity: 1;"/></g><g class="points"/><g class="text"/></g><g class="trace scatter tracee7cb9c" style="stroke-miterlimit: 2; opacity: 1;"><g class="fills"/><g class="errorbars"/><g class="lines"><path class="js-line" d="M212.41,132.43H216.01V196.46" style="vector-effect: non-scaling-stroke; fill: none; stroke: rgb(255, 161, 90); stroke-opacity: 1; stroke-width: 2px; opacity: 1;"/></g><g class="points"/><g class="text"/></g></g></g><g class="overplot"/><path class="xlines-above crisp" d="M0,0" style="fill: none;"/><path class="ylines-above crisp" d="M0,0" style="fill: none;"/><g class="overlines-above"/><g class="xaxislayer-above"/><g class="yaxislayer-above"><g class="y2tick"><text text-anchor="end" x="79" y="4.199999999999999" transform="translate(0,482.70000000000016)" style="font-family: 'Open Sans', verdana, arial, sans-serif; font-size: 12px; fill: rgb(42, 63, 95); fill-opacity: 1; white-space: pre; opacity: 1;">1000</text></g><g class="y2tick"><text text-anchor="end" x="79" y="4.199999999999999" style="font-family: 'Open Sans', verdana, arial, sans-serif; font-size: 12px; fill: rgb(42, 63, 95); fill-opacity: 1; white-space: pre; opacity: 1;" transform="translate(0,437.41000000000014)">1500</text></g><g class="y2tick"><text text-anchor="end" x="79" y="4.199999999999999" style="font-family: 'Open Sans', verdana, arial, sans-serif; font-size: 12px; fill: rgb(42, 63, 95); fill-opacity: 1; white-space: pre; opacity: 1;" transform="translate(0,392.1300000000001)">2000</text></g><g class="y2tick"><text text-anchor="end" x="79" y="4.199999999999999" style="font-family: 'Open Sans', verdana, arial, sans-serif; font-size: 12px; fill: rgb(42, 63, 95); fill-opacity: 1; white-space: pre; opacity: 1;" transform="translate(0,346.84000000000015)">2500</text></g><g class="y2tick"><text text-anchor="end" x="79" y="4.199999999999999" style="font-family: 'Open Sans', verdana, arial, sans-serif; font-size: 12px; fill: rgb(42, 63, 95); fill-opacity: 1; white-space: pre; opacity: 1;" transform="translate(0,301.5600000000001)">3000</text></g></g><g class="overaxes-above"/></g><g class="subplot x3y3"><g class="layer-subplot"><g class="shapelayer"/><g class="imagelayer"/></g><g class="minor-gridlayer"><g class="x3"/><g class="y3"/></g><g class="gridlayer"><g class="x3"><path class="x3grid crisp" transform="translate(170,0)" d="M0,60.00000000000015v206.79999999999993" style="stroke: rgb(255, 255, 255); stroke-opacity: 1; stroke-width: 1px;"/><path class="x3grid crisp" transform="translate(281.61,0)" d="M0,60.00000000000015v206.79999999999993" style="stroke: rgb(255, 255, 255); stroke-opacity: 1; stroke-width: 1px;"/><path class="x3grid crisp" transform="translate(389.61,0)" d="M0,60.00000000000015v206.79999999999993" style="stroke: rgb(255, 255, 255); stroke-opacity: 1; stroke-width: 1px;"/><path class="x3grid crisp" transform="translate(501.22,0)" d="M0,60.00000000000015v206.79999999999993" style="stroke: rgb(255, 255, 255); stroke-opacity: 1; stroke-width: 1px;"/></g><g class="y3"><path class="y3grid crisp" transform="translate(0,228.77000000000015)" d="M80,0h518.42" style="stroke: rgb(255, 255, 255); stroke-opacity: 1; stroke-width: 1px;"/><path class="y3grid crisp" transform="translate(0,173.59000000000015)" d="M80,0h518.42" style="stroke: rgb(255, 255, 255); stroke-opacity: 1; stroke-width: 1px;"/><path class="y3grid crisp" transform="translate(0,118.41000000000014)" d="M80,0h518.42" style="stroke: rgb(255, 255, 255); stroke-opacity: 1; stroke-width: 1px;"/><path class="y3grid crisp" transform="translate(0,63.24000000000015)" d="M80,0h518.42" style="stroke: rgb(255, 255, 255); stroke-opacity: 1; stroke-width: 1px;"/></g></g><g class="zerolinelayer"/><path class="xlines-below"/><path class="ylines-below"/><g class="overlines-below"/><g class="xaxislayer-below"/><g class="yaxislayer-below"/><g class="overaxes-below"/><g class="plot" transform="translate(80,60.00000000000015)" clip-path="url(#clip047a9dx3y3plot)"><g class="scatterlayer mlayer"><g class="trace scatter trace753472" style="stroke-miterlimit: 2; opacity: 1;"><g class="fills"/><g class="errorbars"/><g class="lines"><path class="js-line" d="M32.4,176.08H36V175.44H39.6V172.56H61.2V169.56H64.8V166.54H126V163.82H129.6V161.03H136.81V157.97H140.41V155.02H162.01V152.46H165.61V149.08H190.81V146.32H194.41V143.49H226.81V140.43H237.61V137.37H241.21V131.93H262.81V128.91H277.21V126.17H291.61V120.54H313.21V117.1H327.61V112.38H331.21V109.42H342.01V106.48H345.61V103.62H363.61V100.76H367.21V94.42H374.41V91.63H378.01V87.52H385.21V84.89H388.82V80.8H399.62V78.02H403.22V74.16H410.42V70.59" style="vector-effect: non-scaling-stroke; fill: none; stroke: rgb(99, 110, 250); stroke-opacity: 1; stroke-width: 2px; opacity: 1;"/></g><g class="points"/><g class="text"/></g><g class="trace scatter trace652894" style="stroke-miterlimit: 2; opacity: 1;"><g class="fills"/><g class="errorbars"/><g class="lines"><path class="js-line" d="M0,33.45H3.6V33.7H7.2V59.29H10.8V50.08H14.4V40.6H28.8V17.59H36V10.34" style="vector-effect: non-scaling-stroke; fill: none; stroke: rgb(239, 85, 59); stroke-opacity: 1; stroke-width: 2px; opacity: 1;"/></g><g class="points"/><g class="text"/></g><g class="trace scatter trace61fdff" style="stroke-miterlimit: 2; opacity: 1;"><g class="fills"/><g class="errorbars"/><g class="lines"><path class="js-line" d="M388.82,196.46H392.42V190.16H396.02V187.23H403.22V183.45H410.42V180.54H414.02V177.72H417.62V174.11H421.22V168.4H424.82V165.42H432.02V162.52H439.22V158.05H442.82V155.22H450.02V152.27H457.22V149.75H464.42V146.83H468.02V144.02H471.62V141.26H478.82V138.32H489.62V136.19H493.22V133.06H500.42V131.21H511.22V127.92H514.82V122.74" style="vector-effect: non-scaling-stroke; fill: none; stroke: rgb(0, 204, 150); stroke-opacity: 1; stroke-width: 2px; opacity: 1;"/></g><g class="points"/><g class="text"/></g></g></g><g class="overplot"/><path class="xlines-above crisp" d="M0,0" style="fill: none;"/><path class="ylines-above crisp" d="M0,0" style="fill: none;"/><g class="overlines-above"/><g class="xaxislayer-above"/><g class="yaxislayer-above"><g class="y3tick"><text text-anchor="end" x="79" y="4.199999999999999" transform="translate(0,228.77000000000015)" style="font-family: 'Open Sans', verdana, arial, sans-serif; font-size: 12px; fill: rgb(42, 63, 95); fill-opacity: 1; white-space: pre; opacity: 1;">10k</text></g><g class="y3tick"><text text-anchor="end" x="79" y="4.199999999999999" style="font-family: 'Open Sans', verdana, arial, sans-serif; font-size: 12px; fill: rgb(42, 63, 95); fill-opacity: 1; white-space: pre; opacity: 1;" transform="translate(0,173.59000000000015)">20k</text></g><g class="y3tick"><text text-anchor="end" x="79" y="4.199999999999999" style="font-family: 'Open Sans', verdana, arial, sans-serif; font-size: 12px; fill: rgb(42, 63, 95); fill-opacity: 1; white-space: pre; opacity: 1;" transform="translate(0,118.41000000000014)">30k</text></g><g class="y3tick"><text text-anchor="end" x="79" y="4.199999999999999" style="font-family: 'Open Sans', verdana, arial, sans-serif; font-size: 12px; fill: rgb(42, 63, 95); fill-opacity: 1; white-space: pre; opacity: 1;" transform="translate(0,63.24000000000015)">40k</text></g></g><g class="overaxes-above"/></g></g><g class="polarlayer"/><g class="smithlayer"/><g class="ternarylayer"/><g class="geolayer"/><g class="funnelarealayer"/><g class="pielayer"/><g class="iciclelayer"/><g class="treemaplayer"/><g class="sunburstlayer"/><g class="glimages"/><defs id="topdefs-047a9d"><g class="clips"/><clipPath id="legend047a9d"><rect width="168" height="143" x="0" y="0"/></clipPath></defs><g class="layer-above"><g class="imagelayer"/><g class="shapelayer"/></g><g class="infolayer"><g class="legend" pointer-events="all" transform="translate(619.58,60)"><rect class="bg" shape-rendering="crispEdges" style="stroke: rgb(68, 68, 68); stroke-opacity: 1; fill: rgb(255, 255, 255); fill-opacity: 1; stroke-width: 0px;" width="168" height="143" x="0" y="0"/><g class="scrollbox" transform="" clip-path="url(#legend047a9d)"><text class="legendtitletext" text-anchor="start" x="2" y="18.2" style="font-family: 'Open Sans', verdana, arial, sans-serif; font-size: 14px; fill: rgb(42, 63, 95); fill-opacity: 1; white-space: pre;">title</text><g class="groups" transform=""><g class="traces" transform="translate(0,32.7)" style="opacity: 1;"><text class="legendtext" text-anchor="start" x="40" y="4.680000000000001" style="font-family: 'Open Sans', verdana, arial, sans-serif; font-size: 12px; fill: rgb(42, 63, 95); fill-opacity: 1; white-space: pre;">All the Other Santas</text><g class="layers" style="opacity: 1;"><g class="legendfill"/><g class="legendlines"><path class="js-line" d="M5,0h30" style="fill: none; stroke: rgb(99, 110, 250); stroke-opacity: 1; stroke-width: 2px;"/></g><g class="legendsymbols"><g class="legendpoints"/></g></g><rect class="legendtoggle" x="0" y="-9.5" width="162.15625" height="19" style="fill: rgb(0, 0, 0); fill-opacity: 0;"/></g></g><g class="groups" transform=""><g class="traces" transform="translate(0,51.7)" style="opacity: 1;"><text class="legendtext" text-anchor="start" x="40" y="4.680000000000001" style="font-family: 'Open Sans', verdana, arial, sans-serif; font-size: 12px; fill: rgb(42, 63, 95); fill-opacity: 1; white-space: pre;">Iffy</text><g class="layers" style="opacity: 1;"><g class="legendfill"/><g class="legendlines"><path class="js-line" d="M5,0h30" style="fill: none; stroke: rgb(239, 85, 59); stroke-opacity: 1; stroke-width: 2px;"/></g><g class="legendsymbols"><g class="legendpoints"/></g></g><rect class="legendtoggle" x="0" y="-9.5" width="162.15625" height="19" style="fill: rgb(0, 0, 0); fill-opacity: 0;"/></g></g><g class="groups" transform=""><g class="traces" transform="translate(0,70.7)" style="opacity: 1;"><text class="legendtext" text-anchor="start" x="40" y="4.680000000000001" style="font-family: 'Open Sans', verdana, arial, sans-serif; font-size: 12px; fill: rgb(42, 63, 95); fill-opacity: 1; white-space: pre;">In Heck</text><g class="layers" style="opacity: 1;"><g class="legendfill"/><g class="legendlines"><path class="js-line" d="M5,0h30" style="fill: none; stroke: rgb(0, 204, 150); stroke-opacity: 1; stroke-width: 2px;"/></g><g class="legendsymbols"><g class="legendpoints"/></g></g><rect class="legendtoggle" x="0" y="-9.5" width="162.15625" height="19" style="fill: rgb(0, 0, 0); fill-opacity: 0;"/></g></g><g class="groups" transform=""><g class="traces" transform="translate(0,89.7)" style="opacity: 1;"><text class="legendtext" text-anchor="start" x="40" y="4.680000000000001" style="font-family: 'Open Sans', verdana, arial, sans-serif; font-size: 12px; fill: rgb(42, 63, 95); fill-opacity: 1; white-space: pre;">Leaderboard</text><g class="layers" style="opacity: 1;"><g class="legendfill"/><g class="legendlines"><path class="js-line" d="M5,0h30" style="fill: none; stroke: rgb(171, 99, 250); stroke-opacity: 1; stroke-width: 2px;"/></g><g class="legendsymbols"><g class="legendpoints"/></g></g><rect class="legendtoggle" x="0" y="-9.5" width="162.15625" height="19" style="fill: rgb(0, 0, 0); fill-opacity: 0;"/></g></g><g class="groups" transform=""><g class="traces" transform="translate(0,108.7)" style="opacity: 1;"><text class="legendtext" text-anchor="start" x="40" y="4.680000000000001" style="font-family: 'Open Sans', verdana, arial, sans-serif; font-size: 12px; fill: rgb(42, 63, 95); fill-opacity: 1; white-space: pre;">Tuppence a Bag</text><g class="layers" style="opacity: 1;"><g class="legendfill"/><g class="legendlines"><path class="js-line" d="M5,0h30" style="fill: none; stroke: rgb(255, 161, 90); stroke-opacity: 1; stroke-width: 2px;"/></g><g class="legendsymbols"><g class="legendpoints"/></g></g><rect class="legendtoggle" x="0" y="-9.5" width="162.15625" height="19" style="fill: rgb(0, 0, 0); fill-opacity: 0;"/></g></g><g class="groups" transform=""><g class="traces" transform="translate(0,127.7)" style="opacity: 1;"><text class="legendtext" text-anchor="start" x="40" y="4.680000000000001" style="font-family: 'Open Sans', verdana, arial, sans-serif; font-size: 12px; fill: rgb(42, 63, 95); fill-opacity: 1; white-space: pre;">change</text><g class="layers" style="opacity: 1;"><g class="legendfill"/><g class="legendlines"><path class="js-line" d="M5,0h30" style="fill: none; stroke: rgb(25, 211, 243); stroke-opacity: 1; stroke-width: 2px;"/></g><g class="legendsymbols"><g class="legendpoints"/></g></g><rect class="legendtoggle" x="0" y="-9.5" width="162.15625" height="19" style="fill: rgb(0, 0, 0); fill-opacity: 0;"/></g></g></g><rect class="scrollbar" rx="20" ry="3" width="0" height="0" style="fill: rgb(128, 139, 164); fill-opacity: 1;" x="0" y="0"/></g><g class="g-gtitle"/><g class="g-xtitle"><text class="xtitle" x="339.21" y="760.3" text-anchor="middle" style="font-family: 'Open Sans', verdana, arial, sans-serif; font-size: 14px; fill: rgb(42, 63, 95); opacity: 1; font-weight: normal; white-space: pre;">date</text></g><g class="g-x2title"/><g class="g-x3title"/><g class="g-ytitle" transform="translate(0.150390625,0)"><text class="ytitle" transform="rotate(-90,13.856250000000003,616.6)" x="13.856250000000003" y="616.6" text-anchor="middle" style="font-family: 'Open Sans', verdana, arial, sans-serif; font-size: 14px; fill: rgb(42, 63, 95); opacity: 1; font-weight: normal; white-space: pre;">words</text></g><g class="g-y2title"><text class="y2title" transform="rotate(-90,23.684375000000003,390.0000000000001)" x="23.684375000000003" y="390.0000000000001" text-anchor="middle" style="font-family: 'Open Sans', verdana, arial, sans-serif; font-size: 14px; fill: rgb(42, 63, 95); opacity: 1; font-weight: normal; white-space: pre;">words</text></g><g class="g-y3title"><text class="y3title" transform="rotate(-90,31.840625000000003,163.40000000000012)" x="31.840625000000003" y="163.40000000000012" text-anchor="middle" style="font-family: 'Open Sans', verdana, arial, sans-serif; font-size: 14px; fill: rgb(42, 63, 95); opacity: 1; font-weight: normal; white-space: pre;">words</text></g><g class="annotation" data-index="0" style="opacity: 1;"><g class="annotation-text-g" transform="rotate(90,607.92,616.6)"><g class="cursor-pointer" transform="translate(591,607)"><rect class="bg" x="0.5" y="0.5" width="33" height="18" style="stroke-width: 1px; stroke: rgb(0, 0, 0); stroke-opacity: 0; fill: rgb(0, 0, 0); fill-opacity: 0;"/><text class="annotation-text" text-anchor="middle" x="16.9375" y="14" style="font-family: 'Open Sans', verdana, arial, sans-serif; font-size: 12px; fill: rgb(42, 63, 95); fill-opacity: 1; white-space: pre;">delta</text></g></g></g><g class="annotation" data-index="1" style="opacity: 1;"><g class="annotation-text-g" transform="rotate(90,607.92,390.00000000000006)"><g class="cursor-pointer" transform="translate(590,381)"><rect class="bg" x="0.5" y="0.5" width="34" height="18" style="stroke-width: 1px; stroke: rgb(0, 0, 0); stroke-opacity: 0; fill: rgb(0, 0, 0); fill-opacity: 0;"/><text class="annotation-text" text-anchor="middle" x="17.5" y="14" style="font-family: 'Open Sans', verdana, arial, sans-serif; font-size: 12px; fill: rgb(42, 63, 95); fill-opacity: 1; white-space: pre;">short</text></g></g></g><g class="annotation" data-index="2" style="opacity: 1;"><g class="annotation-text-g" transform="rotate(90,607.92,163.40000000000012)"><g class="cursor-pointer" transform="translate(599,154)"><rect class="bg" x="0.5" y="0.5" width="17" height="18" style="stroke-width: 1px; stroke: rgb(0, 0, 0); stroke-opacity: 0; fill: rgb(0, 0, 0); fill-opacity: 0;"/><text class="annotation-text" text-anchor="middle" x="9.15625" y="14" style="font-family: 'Open Sans', verdana, arial, sans-serif; font-size: 12px; fill: rgb(42, 63, 95); fill-opacity: 1; white-space: pre;">ya</text></g></g></g></g></svg>