<svg class="main-svg" xmlns="http://www.w3.org/2000/svg" xmlns:xlink="http://www.w3.org/1999/xlink" width="800" height="800" style="" viewBox="0 0 800 800"><rect x="0" y="0" width="800" height="800" style="fill: rgb(255, 255, 255); fill-opacity: 1;"/><defs id="defs-5de3c6"><g class="clips"><clipPath id="clip5de3c6xyplot" class="plotclip"><rect width="518.42" height="150.15"/></clipPath><clipPath id="clip5de3c6x2y2plot" class="plotclip"><rect width="518.42" height="150.14999999999998"/></clipPath><clipPath id="clip5de3c6x3y3plot" class="plotclip"><rect width="518.42" height="150.15000000000003"/></clipPath><clipPath id="clip5de3c6x4y4plot" class="plotclip"><rect width="518.42" height="150.15000000000003"/></clipPath><clipPath class="axesclip" id="clip5de3c6x"><rect x="80" y="0" width="518.42" height="800"/></clipPath><clipPath class="axesclip" id="clip5de3c6y"><rect x="0" y="569.8499999999999" width="800" height="150.15"/></clipPath><clipPath class="axesclip" id="clip5de3c6xy"><rect x="80" y="569.8499999999999" width="518.42" height="150.15"/></clipPath><clipPath class="axesclip" id="clip5de3c6y2"><rect x="0" y="399.90000000000003" width="800" height="150.14999999999998"/></clipPath><clipPath class="axesclip" id="clip5de3c6xy2"><rect x="80" y="399.90000000000003" width="518.42" height="150.14999999999998"/></clipPath><clipPath class="axesclip" id="clip5de3c6y3"><rect x="0" y="229.94999999999996" width="800" height="150.15000000000003"/></clipPath><clipPath class="axesclip" id="clip5de3c6xy3"><rect x="80" y="229.94999999999996" width="518.42" height="150.15000000000003"/></clipPath><clipPath class="axesclip" id="clip5de3c6y4"><rect x="0" y="60" width="800" height="150.15000000000003"/></clipPath><clipPath class="axesclip" id="clip5de3c6xy4"><rect x="80" y="60" width="518.42" height="150.15000000000003"/></clipPath><clipPath class="axesclip" id="clip5de3c6x2"><rect x="80" y="0" width="518.42" height="800"/></clipPath><clipPath class="axesclip" id="clip5de3c6x2y"><rect x="80" y="569.8499999999999" width="518.42" height="150.15"/></clipPath><clipPath class="axesclip" id="clip5de3c6x2y2"><rect x="80" y="399.90000000000003" width="518.42" height="150.14999999999998"/></clipPath><clipPath class="axesclip" id="clip5de3c6x2y3"><rect x="80" y="229.94999999999996" width="518.42" height="150.15000000000003"/></clipPath><clipPath class="axesclip" id="clip5de3c6x2y4"><rect x="80" y="60" width="518.42" height="150.15000000000003"/></clipPath><clipPath class="axesclip" id="clip5de3c6x3"><rect x="80" y="0" width="518.42" height="800"/></clipPath><clipPath class="axesclip" id="clip5de3c6x3y"><rect x="80" y="569.8499999999999" width="518.42" height="150.15"/></clipPath><clipPath class="axesclip" id="clip5de3c6x3y2"><rect x="80" y="399.90000000000003" width="518.42" height="150.14999999999998"/></clipPath><clipPath class="axesclip" id="clip5de3c6x3y3"><rect x="80" y="229.94999999999996" width="518.42" height="150.15000000000003"/></clipPath><clipPath class="axesclip" id="clip5de3c6x3y4"><rect x="80" y="60" width="518.42" height="150.15000000000003"/></clipPath><clipPath class="axesclip" id="clip5de3c6x4"><rect x="80" y="0" width="518.42" height="800"/></clipPath><clipPath class="axesclip" id="clip5de3c6x4y"><rect x="80" y="569.8499999999999" width="518.42" height="150.15"/></clipPath><clipPath class="axesclip" id="clip5de3c6x4y2"><rect x="80" y="399.90000000000003" width="518.42" height="150.14999999999998"/></clipPath><clipPath class="axesclip" id="clip5de3c6x4y3"><rect x="80" y="229.94999999999996" width="518.42" height="150.15000000000003"/></clipPath><clipPath class="axesclip" id="clip5de3c6x4y4"><rect x="80" y="60" width="518.42" height="150.15000000000003"/></clipPath></g><g class="gradients"/><g class="patterns"/></defs><g class="bglayer"><rect class="bg" x="80" y="569.8499999999999" width="518.42" height="150.15" style="fill: rgb(229, 236, 246); fill-opacity: 1; stroke-width: 0;"/><rect class="bg" x="80" y="399.90000000000003" width="518.42" height="150.14999999999998" style="fill: rgb(229, 236, 246); fill-opacity: 1; stroke-width: 0;"/><rect class="bg" x="80" y="229.94999999999996" width="518.42" height="150.15000000000003" style="fill: rgb(229, 236, 246); fill-opacity: 1; stroke-width: 0;"/><rect class="bg" x="80" y="60" width="518.42" height="150.15000000000003" style="fill: rgb(229, 236, 246); fill-opacity: 1; stroke-width: 0;"/></g><g class="layer-below"><g class="imagelayer"/><g class="shapelayer"/></g><g class="cartesianlayer"><g class="subplot xy"><g class="layer-subplot"><g class="shapelayer"/><g class="imagelayer"/></g><g class="minor-gridlayer"><g class="x"/><g class="y"/></g><g class="gridlayer"><g class="x"><path class="xgrid crisp" transform="translate(157.15,0)" d="M0,569.8499999999999v150.15" style="stroke: rgb(255, 255, 255); stroke-opacity: 1; stroke-width: 1px;"/><path class="xgrid crisp" transform="translate(252.81,0)" d="M0,569.8499999999999v150.15" style="stroke: rgb(255, 255, 255); stroke-opacity: 1; stroke-width: 1px;"/><path class="xgrid crisp" transform="translate(345.38,0)" d="M0,569.8499999999999v150.15" style="stroke: rgb(255, 255, 255); stroke-opacity: 1; stroke-width: 1px;"/><path class="xgrid crisp" transform="translate(441.04,0)" d="M0,569.8499999999999v150.15" style="stroke: rgb(255, 255, 255); stroke-opacity: 1; stroke-width: 1px;"/><path class="xgrid crisp" transform="translate(536.7,0)" d="M0,569.8499999999999v150.15" style="stroke: rgb(255, 255, 255); stroke-opacity: 1; stroke-width: 1px;"/></g><g class="y"><path class="ygrid crisp" transform="translate(0,718.3199999999999)" d="M80,0h518.42" style="stroke: rgb(255, 255, 255); stroke-opacity: 1; stroke-width: 1px;"/><path class="ygrid crisp" transform="translate(0,666.0899999999999)" d="M80,0h518.42" style="stroke: rgb(255, 255, 255); stroke-opacity: 1; stroke-width: 1px;"/></g></g><g class="zerolinelayer"><path class="yzl zl crisp" transform="translate(0,613.8499999999999)" d="M80,0h518.42" style="stroke: rgb(255, 255, 255); stroke-opacity: 1; stroke-width: 2px;"/></g><path class="xlines-below"/><path class="ylines-below"/><g class="overlines-below"/><g class="xaxislayer-below"/><g class="yaxislayer-below"/><g class="overaxes-below"/><g class="plot" transform="translate(80,569.8499999999999)" clip-path="url(#clip5de3c6xyplot)"><g class="scatterlayer mlayer"><g class="trace scatter trace48d22b" style="stroke-miterlimit: 2; opacity: 1;"><g class="fills"/><g class="errorbars"/><g class="lines"><path class="js-line" d="M3.09,44.12H6.17V56.11H9.26V39.64H12.34V39.51H15.43V44H18.51V44H21.6V44H24.69V33.11H27.77V44H30.86V40.26H33.94V42.64H37.03V44H40.12V44H43.2V44H46.29V44H49.37V44H52.46V42.58H55.54V42.57H58.63V44H61.72V44H64.8V44H67.89V44H70.97V44H74.06V44H77.15V44H80.23V44H83.32V44H86.4V44H89.49V44H92.57V44H95.66V44H98.75V44H101.83V44H104.92V44H108V42.71H111.09V42.68H114.18V44H117.26V42.55H120.35V42.6H123.43V44H126.52V44H129.6V44H132.69V44H135.78V44H138.86V42.79H141.95V42.4H145.03V44H148.12V44H151.21V44H154.29V44H157.38V44H160.46V44H163.55V42.69H166.63V42.66H169.72V44H172.81V44H175.89V44H178.98V44H182.06V44H185.15V45.85H188.24V44H191.32V44H194.41V42.55H197.49V44H200.58V44H203.66V42.55H206.75V41.42H209.84V44H212.92V44H216.01V44H219.09V44H222.18V44H225.27V42.57H228.35V44H231.44V44H234.52V44H237.61V42.7H240.69V44H243.78V44H246.87V44H249.95V41.34H253.04V44H256.12V44H259.21V44H262.3V44H265.38V44H268.47V42.37H271.55V44H274.64V44H277.72V44H280.81V41.77H283.9V42.6H286.98V44H290.07V44H293.15V42.61H296.24V42.64H299.33V44H302.41V44H305.5V44H308.58V44H311.67V42.65H314.75V41H317.84V44H320.93V42.67H324.01V42.06H327.1V44H330.18V42.76H333.27V42.06H336.36V41.02H339.44V42.61H342.53V42.68H345.61V38.91H348.7V42.66H351.78V40.93H354.87V41.67H357.96V42.29H361.04V41.3H364.13V41.28H367.21V44H370.3V42.62H373.39V44.5H376.47V41.89H379.56V42.66H382.64V44H385.73V42.6H388.81V44H391.9V42.8H394.99V44H398.07V42.62H401.16V42.67H404.24V42.69H407.33V44H410.42V42.61H413.5V44H416.59V44H419.67V42.99H422.76V42.52H425.84V44H428.93V43.13H432.02V44H435.1V42.9H438.19V42.44H441.27V41.55H444.36V42.7H447.45V56.79H450.53V44H453.62V44H456.7V44H459.79V44H462.88V44H465.96V44H469.05V42.94H472.13V43.38H475.22V73.67H478.3V44H481.39V44H484.48V42.19H487.56V42.89H490.65V44H493.73V44H496.82V42.49H499.9V142.64H502.99V36.23H506.08V19.14H509.16V41.05H512.25V26.22H515.33V7.51" style="vector-effect: non-scaling-stroke; fill: none; stroke: rgb(255, 102, 146); stroke-opacity: 1; stroke-width: 2px; opacity: 1;"/></g><g class="points"/><g class="text"/></g></g></g><g class="overplot"/><path class="xlines-above crisp" d="M0,0" style="fill: none;"/><path class="ylines-above crisp" d="M0,0" style="fill: none;"/><g class="overlines-above"/><g class="xaxislayer-above"><g class="xtick"><text text-anchor="middle" x="0" y="732.9999999999999" transform="translate(157.15,0)" style="font-family: 'Open Sans', verdana, arial, sans-serif; font-size: 12px; fill: rgb(42, 63, 95); fill-opacity: 1; white-space: pre; opacity: 1;">Oct 2023</text></g><g class="xtick"><text text-anchor="middle" x="0" y="732.9999999999999" style="font-family: 'Open Sans', verdana, arial, sans-serif; font-size: 12px; fill: rgb(42, 63, 95); fill-opacity: 1; white-space: pre; opacity: 1;" transform="translate(252.81,0)">Nov 2023</text></g><g class="xtick"><text text-anchor="middle" x="0" y="732.9999999999999" style="font-family: 'Open Sans', verdana, arial, sans-serif; font-size: 12px; fill: rgb(42, 63, 95); fill-opacity: 1; white-space: pre; opacity: 1;" transform="translate(345.38,0)">Dec 2023</text></g><g class="xtick"><text text-anchor="middle" x="0" y="732.9999999999999" style="font-family: 'Open Sans', verdana, arial, sans-serif; font-size: 12px; fill: rgb(42, 63, 95); fill-opacity: 1; white-space: pre; opacity: 1;" transform="translate(441.04,0)">Jan 2024</text></g><g class="xtick"><text text-anchor="middle" x="0" y="732.9999999999999" style="font-family: 'Open Sans', verdana, arial, sans-serif; font-size: 12px; fill: rgb(42, 63, 95); fill-opacity: 1; white-space: pre; opacity: 1;" transform="translate(536.7,0)">Feb 2024</text></g></g><g class="yaxislayer-above"><g class="ytick"><text text-anchor="end" x="79" y="4.199999999999999" transform="translate(0,718.3199999999999)" style="font-family: 'Open Sans', verdana, arial, sans-serif; font-size: 12px; fill: rgb(42, 63, 95); fill-opacity: 1; white-space: pre; opacity: 1;">−40k</text></g><g class="ytick"><text text-anchor="end" x="79" y="4.199999999999999" style="font-family: 'Open Sans', verdana, arial, sans-serif; font-size: 12px; fill: rgb(42, 63, 95); fill-opacity: 1; white-space: pre; opacity: 1;" transform="translate(0,666.0899999999999)">−20k</text></g><g class="ytick"><text text-anchor="end" x="79" y="4.199999999999999" style="font-family: 'Open Sans', verdana, arial, sans-serif; font-size: 12px; fill: rgb(42, 63, 95); fill-opacity: 1; white-space: pre; opacity: 1;" transform="translate(0,613.8499999999999)">0</text></g></g><g class="overaxes-above"/></g><g class="subplot x2y2"><g class="layer-subplot"><g class="shapelayer"/><g class="imagelayer"/></g><g class="minor-gridlayer"><g class="x2"/><g class="y2"/></g><g class="gridlayer"><g class="x2"><path class="x2grid crisp" transform="translate(157.15,0)" d="M0,399.90000000000003v150.14999999999998" style="stroke: rgb(255, 255, 255); stroke-opacity: 1; stroke-width: 1px;"/><path class="x2grid crisp" transform="translate(252.81,0)" d="M0,399.90000000000003v150.14999999999998" style="stroke: rgb(255, 255, 255); stroke-opacity: 1; stroke-width: 1px;"/><path class="x2grid crisp" transform="translate(345.38,0)" d="M0,399.90000000000003v150.14999999999998" style="stroke: rgb(255, 255, 255); stroke-opacity: 1; stroke-width: 1px;"/><path class="x2grid crisp" transform="translate(441.04,0)" d="M0,399.90000000000003v150.14999999999998" style="stroke: rgb(255, 255, 255); stroke-opacity: 1; stroke-width: 1px;"/><path class="x2grid crisp" transform="translate(536.7,0)" d="M0,399.90000000000003v150.14999999999998" style="stroke: rgb(255, 255, 255); stroke-opacity: 1; stroke-width: 1px;"/></g><g class="y2"><path class="y2grid crisp" transform="translate(0,494.41)" d="M80,0h518.42" style="stroke: rgb(255, 255, 255); stroke-opacity: 1; stroke-width: 1px;"/><path class="y2grid crisp" transform="translate(0,443.03000000000003)" d="M80,0h518.42" style="stroke: rgb(255, 255, 255); stroke-opacity: 1; stroke-width: 1px;"/></g></g><g class="zerolinelayer"><path class="y2zl zl crisp" transform="translate(0,545.78)" d="M80,0h518.42" style="stroke: rgb(255, 255, 255); stroke-opacity: 1; stroke-width: 2px;"/></g><path class="xlines-below"/><path class="ylines-below"/><g class="overlines-below"/><g class="xaxislayer-below"/><g class="yaxislayer-below"/><g class="overaxes-below"/><g class="plot" transform="translate(80,399.90000000000003)" clip-path="url(#clip5de3c6x2y2plot)"><g class="scatterlayer mlayer"><g class="trace scatter traceaeeaf0" style="stroke-miterlimit: 2; opacity: 1;"><g class="fills"/><g class="errorbars"/><g class="lines"><path class="js-line" d="M373.39,137.71H373.39V142.64H435.1V131.8H469.05V121.37H472.13V115.29H484.48V97.49H487.56V90.29H487.56V86.57H496.82V71.7H502.99V64.25H506.08V51.97H512.25V41.16H515.33V7.51" style="vector-effect: non-scaling-stroke; fill: none; stroke: rgb(255, 161, 90); stroke-opacity: 1; stroke-width: 2px; opacity: 1;"/></g><g class="points"/><g class="text"/></g></g></g><g class="overplot"/><path class="xlines-above crisp" d="M0,0" style="fill: none;"/><path class="ylines-above crisp" d="M0,0" style="fill: none;"/><g class="overlines-above"/><g class="xaxislayer-above"/><g class="yaxislayer-above"><g class="y2tick"><text text-anchor="end" x="79" y="4.199999999999999" transform="translate(0,545.78)" style="font-family: 'Open Sans', verdana, arial, sans-serif; font-size: 12px; fill: rgb(42, 63, 95); fill-opacity: 1; white-space: pre; opacity: 1;">0</text></g><g class="y2tick"><text text-anchor="end" x="79" y="4.199999999999999" style="font-family: 'Open Sans', verdana, arial, sans-serif; font-size: 12px; fill: rgb(42, 63, 95); fill-opacity: 1; white-space: pre; opacity: 1;" transform="translate(0,494.41)">2000</text></g><g class="y2tick"><text text-anchor="end" x="79" y="4.199999999999999" style="font-family: 'Open Sans', verdana, arial, sans-serif; font-size: 12px; fill: rgb(42, 63, 95); fill-opacity: 1; white-space: pre; opacity: 1;" transform="translate(0,443.03000000000003)">4000</text></g></g><g class="overaxes-above"/></g><g class="subplot x3y3"><g class="layer-subplot"><g class="shapelayer"/><g class="imagelayer"/></g><g class="minor-gridlayer"><g class="x3"/><g class="y3"/></g><g class="gridlayer"><g class="x3"><path class="x3grid crisp" transform="translate(157.15,0)" d="M0,229.94999999999996v150.15000000000003" style="stroke: rgb(255, 255, 255); stroke-opacity: 1; stroke-width: 1px;"/><path class="x3grid crisp" transform="translate(252.81,0)" d="M0,229.94999999999996v150.15000000000003" style="stroke: rgb(255, 255, 255); stroke-opacity: 1; stroke-width: 1px;"/><path class="x3grid crisp" transform="translate(345.38,0)" d="M0,229.94999999999996v150.15000000000003" style="stroke: rgb(255, 255, 255); stroke-opacity: 1; stroke-width: 1px;"/><path class="x3grid crisp" transform="translate(441.04,0)" d="M0,229.94999999999996v150.15000000000003" style="stroke: rgb(255, 255, 255); stroke-opacity: 1; stroke-width: 1px;"/><path class="x3grid crisp" transform="translate(536.7,0)" d="M0,229.94999999999996v150.15000000000003" style="stroke: rgb(255, 255, 255); stroke-opacity: 1; stroke-width: 1px;"/></g><g class="y3"><path class="y3grid crisp" transform="translate(0,372.3299999999999)" d="M80,0h518.42" style="stroke: rgb(255, 255, 255); stroke-opacity: 1; stroke-width: 1px;"/><path class="y3grid crisp" transform="translate(0,339.44999999999993)" d="M80,0h518.42" style="stroke: rgb(255, 255, 255); stroke-opacity: 1; stroke-width: 1px;"/><path class="y3grid crisp" transform="translate(0,306.56999999999994)" d="M80,0h518.42" style="stroke: rgb(255, 255, 255); stroke-opacity: 1; stroke-width: 1px;"/><path class="y3grid crisp" transform="translate(0,273.68999999999994)" d="M80,0h518.42" style="stroke: rgb(255, 255, 255); stroke-opacity: 1; stroke-width: 1px;"/><path class="y3grid crisp" transform="translate(0,240.80999999999995)" d="M80,0h518.42" style="stroke: rgb(255, 255, 255); stroke-opacity: 1; stroke-width: 1px;"/></g></g><g class="zerolinelayer"/><path class="xlines-below"/><path class="ylines-below"/><g class="overlines-below"/><g class="xaxislayer-below"/><g class="yaxislayer-below"/><g class="overaxes-below"/><g class="plot" transform="translate(80,229.94999999999996)" clip-path="url(#clip5de3c6x3y3plot)"><g class="scatterlayer mlayer"><g class="trace scatter trace1aa757" style="stroke-miterlimit: 2; opacity: 1;"><g class="fills"/><g class="errorbars"/><g class="lines"><path class="js-line" d="M342.53,136.2H345.61V99.18H348.7V65.51H354.87V40.39H364.13V7.51" style="vector-effect: non-scaling-stroke; fill: none; stroke: rgb(171, 99, 250); stroke-opacity: 1; stroke-width: 2px; opacity: 1;"/></g><g class="points"/><g class="text"/></g><g class="trace scatter trace96053f" style="stroke-miterlimit: 2; opacity: 1;"><g class="fills"/><g class="errorbars"/><g class="lines"><path class="js-line" d="M182.06,96.15H185.15V142.64" style="vector-effect: non-scaling-stroke; fill: none; stroke: rgb(25, 211, 243); stroke-opacity: 1; stroke-width: 2px; opacity: 1;"/></g><g class="points"/><g class="text"/></g></g></g><g class="overplot"/><path class="xlines-above crisp" d="M0,0" style="fill: none;"/><path class="ylines-above crisp" d="M0,0" style="fill: none;"/><g class="overlines-above"/><g class="xaxislayer-above"/><g class="yaxislayer-above"><g class="y3tick"><text text-anchor="end" x="79" y="4.199999999999999" transform="translate(0,372.3299999999999)" style="font-family: 'Open Sans', verdana, arial, sans-serif; font-size: 12px; fill: rgb(42, 63, 95); fill-opacity: 1; white-space: pre; opacity: 1;">1000</text></g><g class="y3tick"><text text-anchor="end" x="79" y="4.199999999999999" style="font-family: 'Open Sans', verdana, arial, sans-serif; font-size: 12px; fill: rgb(42, 63, 95); fill-opacity: 1; white-space: pre; opacity: 1;" transform="translate(0,339.44999999999993)">1500</text></g><g class="y3tick"><text text-anchor="end" x="79" y="4.199999999999999" style="font-family: 'Open Sans', verdana, arial, sans-serif; font-size: 12px; fill: rgb(42, 63, 95); fill-opacity: 1; white-space: pre; opacity: 1;" transform="translate(0,306.56999999999994)">2000</text></g><g class="y3tick"><text text-anchor="end" x="79" y="4.199999999999999" style="font-family: 'Open Sans', verdana, arial, sans-serif; font-size: 12px; fill: rgb(42, 63, 95); fill-opacity: 1; white-space: pre; opacity: 1;" transform="translate(0,273.68999999999994)">2500</text></g><g class="y3tick"><text text-anchor="end" x="79" y="4.199999999999999" style="font-family: 'Open Sans', verdana, arial, sans-serif; font-size: 12px; fill: rgb(42, 63, 95); fill-opacity: 1; white-space: pre; opacity: 1;" transform="translate(0,240.80999999999995)">3000</text></g></g><g class="overaxes-above"/></g><g class="subplot x4y4"><g class="layer-subplot"><g class="shapelayer"/><g class="imagelayer"/></g><g class="minor-gridlayer"><g class="x4"/><g class="y4"/></g><g class="gridlayer"><g class="x4"><path class="x4grid crisp" transform="translate(157.15,0)" d="M0,60v150.15000000000003" style="stroke: rgb(255, 255, 255); stroke-opacity: 1; stroke-width: 1px;"/><path class="x4grid crisp" transform="translate(252.81,0)" d="M0,60v150.15000000000003" style="stroke: rgb(255, 255, 255); stroke-opacity: 1; stroke-width: 1px;"/><path class="x4grid crisp" transform="translate(345.38,0)" d="M0,60v150.15000000000003" style="stroke: rgb(255, 255, 255); stroke-opacity: 1; stroke-width: 1px;"/><path class="x4grid crisp" transform="translate(441.04,0)" d="M0,60v150.15000000000003" style="stroke: rgb(255, 255, 255); stroke-opacity: 1; stroke-width: 1px;"/><path class="x4grid crisp" transform="translate(536.7,0)" d="M0,60v150.15000000000003" style="stroke: rgb(255, 255, 255); stroke-opacity: 1; stroke-width: 1px;"/></g><g class="y4"><path class="y4grid crisp" transform="translate(0,170.25)" d="M80,0h518.42" style="stroke: rgb(255, 255, 255); stroke-opacity: 1; stroke-width: 1px;"/><path class="y4grid crisp" transform="translate(0,134.45999999999998)" d="M80,0h518.42" style="stroke: rgb(255, 255, 255); stroke-opacity: 1; stroke-width: 1px;"/><path class="y4grid crisp" transform="translate(0,98.68)" d="M80,0h518.42" style="stroke: rgb(255, 255, 255); stroke-opacity: 1; stroke-width: 1px;"/><path class="y4grid crisp" transform="translate(0,62.9)" d="M80,0h518.42" style="stroke: rgb(255, 255, 255); stroke-opacity: 1; stroke-width: 1px;"/></g></g><g class="zerolinelayer"><path class="y4zl zl crisp" transform="translate(0,206.03)" d="M80,0h518.42" style="stroke: rgb(255, 255, 255); stroke-opacity: 1; stroke-width: 2px;"/></g><path class="xlines-below"/><path class="ylines-below"/><g class="overlines-below"/><g class="xaxislayer-below"/><g class="yaxislayer-below"/><g class="overaxes-below"/><g class="plot" transform="translate(80,60)" clip-path="url(#clip5de3c6x4y4plot)"><g class="scatterlayer mlayer"><g class="trace scatter tracefc346f" style="stroke-miterlimit: 2; opacity: 1;"><g class="fills"/><g class="errorbars"/><g class="lines"><path class="js-line" d="M27.77,114.99H30.86V114.57H33.94V112.7H52.46V110.76H55.54V108.8H108V107.04H111.09V105.23H117.26V103.25H120.35V101.33H138.86V99.67H141.95V97.48H163.55V95.69H166.63V93.85H194.41V91.87H203.66V89.89H206.75V86.36H225.27V84.4H237.61V82.62H249.95V78.97H268.47V76.74H280.81V73.68H283.9V71.76H293.15V69.86H296.24V68H311.67V66.14H314.75V62.03H320.93V60.22H324.01V57.56H330.18V55.86H333.27V53.2H342.53V51.4H345.61V48.89H351.78V46.58" style="vector-effect: non-scaling-stroke; fill: none; stroke: rgb(99, 110, 250); stroke-opacity: 1; stroke-width: 2px; opacity: 1;"/></g><g class="points"/><g class="text"/></g><g class="trace scatter tracea16094" style="stroke-miterlimit: 2; opacity: 1;"><g class="fills"/><g class="errorbars"/><g class="lines"><path class="js-line" d="M0,22.49H3.09V22.66H6.17V39.25H9.26V33.28H12.34V27.13H24.69V12.21H30.86V7.51H499.9V142.64H502.99V133.04H506.08V100.7H509.16V96.66H512.25V73.81H515.33V28.51" style="vector-effect: non-scaling-stroke; fill: none; stroke: rgb(239, 85, 59); stroke-opacity: 1; stroke-width: 2px; opacity: 1;"/></g><g class="points"/><g class="text"/></g><g class="trace scatter trace36c69e" style="stroke-miterlimit: 2; opacity: 1;"><g class="fills"/><g class="errorbars"/><g class="lines"><path class="js-line" d="M333.27,128.2H336.36V124.12H339.44V122.22H345.61V119.77H351.78V117.88H354.87V116.05H357.96V113.71H361.04V110.01H364.13V108.07H370.3V106.19H376.47V103.3H379.56V101.46H385.73V99.55H391.9V97.91H398.07V96.02H401.16V94.2H404.24V92.41H410.42V90.5H419.67V89.12H422.76V87.09H428.93V85.89H438.19V83.76H441.27V80.4H444.36V78.62H447.45V96.15H475.22V136.8" style="vector-effect: non-scaling-stroke; fill: none; stroke: rgb(0, 204, 150); stroke-opacity: 1; stroke-width: 2px; opacity: 1;"/></g><g class="points"/><g class="text"/></g></g></g><g class="overplot"/><path class="xlines-above crisp" d="M0,0" style="fill: none;"/><path class="ylines-above crisp" d="M0,0" style="fill: none;"/><g class="overlines-above"/><g class="xaxislayer-above"/><g class="yaxislayer-above"><g class="y4tick"><text text-anchor="end" x="79" y="4.199999999999999" transform="translate(0,206.03)" style="font-family: 'Open Sans', verdana, arial, sans-serif; font-size: 12px; fill: rgb(42, 63, 95); fill-opacity: 1; white-space: pre; opacity: 1;">0</text></g><g class="y4tick"><text text-anchor="end" x="79" y="4.199999999999999" style="font-family: 'Open Sans', verdana, arial, sans-serif; font-size: 12px; fill: rgb(42, 63, 95); fill-opacity: 1; white-space: pre; opacity: 1;" transform="translate(0,170.25)">10k</text></g><g class="y4tick"><text text-anchor="end" x="79" y="4.199999999999999" style="font-family: 'Open Sans', verdana, arial, sans-serif; font-size: 12px; fill: rgb(42, 63, 95); fill-opacity: 1; white-space: pre; opacity: 1;" transform="translate(0,134.45999999999998)">20k</text></g><g class="y4tick"><text text-anchor="end" x="79" y="4.199999999999999" style="font-family: 'Open Sans', verdana, arial, sans-serif; font-size: 12px; fill: rgb(42, 63, 95); fill-opacity: 1; white-space: pre; opacity: 1;" transform="translate(0,98.68)">30k</text></g><g class="y4tick"><text text-anchor="end" x="79" y="4.199999999999999" style="font-family: 'Open Sans', verdana, arial, sans-serif; font-size: 12px; fill: rgb(42, 63, 95); fill-opacity: 1; white-space: pre; opacity: 1;" transform="translate(0,62.9)">40k</text></g></g><g class="overaxes-above"/></g></g><g class="polarlayer"/><g class="smithlayer"/><g class="ternarylayer"/><g class="geolayer"/><g class="funnelarealayer"/><g class="pielayer"/><g class="iciclelayer"/><g class="treemaplayer"/><g class="sunburstlayer"/><g class="glimages"/><defs id="topdefs-5de3c6"><g class="clips"/><clipPath id="legend5de3c6"><rect width="168" height="162" x="0" y="0"/></clipPath></defs><g class="layer-above"><g class="imagelayer"/><g class="shapelayer"/></g><g class="infolayer"><g class="legend" pointer-events="all" transform="translate(619.58,60)"><rect class="bg" shape-rendering="crispEdges" style="stroke: rgb(68, 68, 68); stroke-opacity: 1; fill: rgb(255, 255, 255); fill-opacity: 1; stroke-width: 0px;" width="168" height="162" x="0" y="0"/><g class="scrollbox" transform="" clip-path="url(#legend5de3c6)"><text class="legendtitletext" text-anchor="start" x="2" y="18.2" style="font-family: 'Open Sans', verdana, arial, sans-serif; font-size: 14px; fill: rgb(42, 63, 95); fill-opacity: 1; white-space: pre;">title</text><g class="groups" transform=""><g class="traces" transform="translate(0,32.7)" style="opacity: 1;"><text class="legendtext" text-anchor="start" x="40" y="4.680000000000001" style="font-family: 'Open Sans', verdana, arial, sans-serif; font-size: 12px; fill: rgb(42, 63, 95); fill-opacity: 1; white-space: pre;">All the Other Santas</text><g class="layers" style="opacity: 1;"><g class="legendfill"/><g class="legendlines"><path class="js-line" d="M5,0h30" style="fill: none; stroke: rgb(99, 110, 250); stroke-opacity: 1; stroke-width: 2px;"/></g><g class="legendsymbols"><g class="legendpoints"/></g></g><rect class="legendtoggle" x="0" y="-9.5" width="162.15625" height="19" style="fill: rgb(0, 0, 0); fill-opacity: 0;"/></g></g><g class="groups" transform=""><g class="traces" transform="translate(0,51.7)" style="opacity: 1;"><text class="legendtext" text-anchor="start" x="40" y="4.680000000000001" style="font-family: 'Open Sans', verdana, arial, sans-serif; font-size: 12px; fill: rgb(42, 63, 95); fill-opacity: 1; white-space: pre;">Iffy</text><g class="layers" style="opacity: 1;"><g class="legendfill"/><g class="legendlines"><path class="js-line" d="M5,0h30" style="fill: none; stroke: rgb(239, 85, 59); stroke-opacity: 1; stroke-width: 2px;"/></g><g class="legendsymbols"><g class="legendpoints"/></g></g><rect class="legendtoggle" x="0" y="-9.5" width="162.15625" height="19" style="fill: rgb(0, 0, 0); fill-opacity: 0;"/></g></g><g class="groups" transform=""><g class="traces" transform="translate(0,70.7)" style="opacity: 1;"><text class="legendtext" text-anchor="start" x="40" y="4.680000000000001" style="font-family: 'Open Sans', verdana, arial, sans-serif; font-size: 12px; fill: rgb(42, 63, 95); fill-opacity: 1; white-space: pre;">In Heck</text><g class="layers" style="opacity: 1;"><g class="legendfill"/><g class="legendlines"><path class="js-line" d="M5,0h30" style="fill: none; stroke: rgb(0, 204, 150); stroke-opacity: 1; stroke-width: 2px;"/></g><g class="legendsymbols"><g class="legendpoints"/></g></g><rect class="legendtoggle" x="0" y="-9.5" width="162.15625" height="19" style="fill: rgb(0, 0, 0); fill-opacity: 0;"/></g></g><g class="groups" transform=""><g class="traces" transform="translate(0,89.7)" style="opacity: 1;"><text class="legendtext" text-anchor="start" x="40" y="4.680000000000001" style="font-family: 'Open Sans', verdana, arial, sans-serif; font-size: 12px; fill: rgb(42, 63, 95); fill-opacity: 1; white-space: pre;">Leaderboard</text><g class="layers" style="opacity: 1;"><g class="legendfill"/><g class="legendlines"><path class="js-line" d="M5,0h30" style="fill: none; stroke: rgb(171, 99, 250); stroke-opacity: 1; stroke-width: 2px;"/></g><g class="legendsymbols"><g class="legendpoints"/></g></g><rect class="legendtoggle" x="0" y="-9.5" width="162.15625" height="19" style="fill: rgb(0, 0, 0); fill-opacity: 0;"/></g></g><g class="groups" transform=""><g class="traces" transform="translate(0,108.7)" style="opacity: 1;"><text class="legendtext" text-anchor="start" x="40" y="4.680000000000001" style="font-family: 'Open Sans', verdana, arial, sans-serif; font-size: 12px; fill: rgb(42, 63, 95); fill-opacity: 1; white-space: pre;">Scribophile</text><g class="layers" style="opacity: 1;"><g class="legendfill"/><g class="legendlines"><path class="js-line" d="M5,0h30" style="fill: none; stroke: rgb(255, 161, 90); stroke-opacity: 1; stroke-width: 2px;"/></g><g class="legendsymbols"><g class="legendpoints"/></g></g><rect class="legendtoggle" x="0" y="-9.5" width="162.15625" height="19" style="fill: rgb(0, 0, 0); fill-opacity: 0;"/></g></g><g class="groups" transform=""><g class="traces" transform="translate(0,127.7)" style="opacity: 1;"><text class="legendtext" text-anchor="start" x="40" y="4.680000000000001" style="font-family: 'Open Sans', verdana, arial, sans-serif; font-size: 12px; fill: rgb(42, 63, 95); fill-opacity: 1; white-space: pre;">Tuppence a Bag</text><g class="layers" style="opacity: 1;"><g class="legendfill"/><g class="legendlines"><path class="js-line" d="M5,0h30" style="fill: none; stroke: rgb(25, 211, 243); stroke-opacity: 1; stroke-width: 2px;"/></g><g class="legendsymbols"><g class="legendpoints"/></g></g><rect class="legendtoggle" x="0" y="-9.5" width="162.15625" height="19" style="fill: rgb(0, 0, 0); fill-opacity: 0;"/></g></g><g class="groups" transform=""><g class="traces" transform="translate(0,146.7)" style="opacity: 1;"><text class="legendtext" text-anchor="start" x="40" y="4.680000000000001" style="font-family: 'Open Sans', verdana, arial, sans-serif; font-size: 12px; fill: rgb(42, 63, 95); fill-opacity: 1; white-space: pre;">change</text><g class="layers" style="opacity: 1;"><g class="legendfill"/><g class="legendlines"><path class="js-line" d="M5,0h30" style="fill: none; stroke: rgb(255, 102, 146); stroke-opacity: 1; stroke-width: 2px;"/></g><g class="legendsymbols"><g class="legendpoints"/></g></g><rect class="legendtoggle" x="0" y="-9.5" width="162.15625" height="19" style="fill: rgb(0, 0, 0); fill-opacity: 0;"/></g></g></g><rect class="scrollbar" rx="20" ry="3" width="0" height="0" style="fill: rgb(128, 139, 164); fill-opacity: 1;" x="0" y="0"/></g><g class="g-gtitle"/><g class="g-xtitle"><text class="xtitle" x="339.21" y="760.3" text-anchor="middle" style="font-family: 'Open Sans', verdana, arial, sans-serif; font-size: 14px; fill: rgb(42, 63, 95); opacity: 1; font-weight: normal; white-space: pre;">date</text></g><g class="g-x2title"/><g class="g-x3title"/><g class="g-x4title"/><g class="g-ytitle"><text class="ytitle" transform="rotate(-90,22.012500000000003,644.925)" x="22.012500000000003" y="644.925" text-anchor="middle" style="font-family: 'Open Sans', verdana, arial, sans-serif; font-size: 14px; fill: rgb(42, 63, 95); opacity: 1; font-weight: normal; white-space: pre;">words</text></g><g class="g-y2title"><text class="y2title" transform="rotate(-90,23.684375000000003,474.975)" x="23.684375000000003" y="474.975" text-anchor="middle" style="font-family: 'Open Sans', verdana, arial, sans-serif; font-size: 14px; fill: rgb(42, 63, 95); opacity: 1; font-weight: normal; white-space: pre;">words</text></g><g class="g-y3title"><text class="y3title" transform="rotate(-90,23.684375000000003,305.025)" x="23.684375000000003" y="305.025" text-anchor="middle" style="font-family: 'Open Sans', verdana, arial, sans-serif; font-size: 14px; fill: rgb(42, 63, 95); opacity: 1; font-weight: normal; white-space: pre;">words</text></g><g class="g-y4title"><text class="y4title" transform="rotate(-90,31.840625000000003,135.07500000000002)" x="31.840625000000003" y="135.07500000000002" text-anchor="middle" style="font-family: 'Open Sans', verdana, arial, sans-serif; font-size: 14px; fill: rgb(42, 63, 95); opacity: 1; font-weight: normal; white-space: pre;">words</text></g><g class="annotation" data-index="0" style="opacity: 1;"><g class="annotation-text-g" transform="rotate(90,607.92,644.925)"><g class="cursor-pointer" transform="translate(591,635)"><rect class="bg" x="0.5" y="0.5" width="33" height="18" style="stroke-width: 1px; stroke: rgb(0, 0, 0); stroke-opacity: 0; fill: rgb(0, 0, 0); fill-opacity: 0;"/><text class="annotation-text" text-anchor="middle" x="16.9375" y="14" style="font-family: 'Open Sans', verdana, arial, sans-serif; font-size: 12px; fill: rgb(42, 63, 95); fill-opacity: 1; white-space: pre;">delta</text></g></g></g><g class="annotation" data-index="1" style="opacity: 1;"><g class="annotation-text-g" transform="rotate(90,607.92,474.975)"><g class="cursor-pointer" transform="translate(586,465)"><rect class="bg" x="0.5" y="0.5" width="43" height="18" style="stroke-width: 1px; stroke: rgb(0, 0, 0); stroke-opacity: 0; fill: rgb(0, 0, 0); fill-opacity: 0;"/><text class="annotation-text" text-anchor="middle" x="21.828125" y="14" style="font-family: 'Open Sans', verdana, arial, sans-serif; font-size: 12px; fill: rgb(42, 63, 95); fill-opacity: 1; white-space: pre;">review</text></g></g></g><g class="annotation" data-index="2" style="opacity: 1;"><g class="annotation-text-g" transform="rotate(90,607.92,305.025)"><g class="cursor-pointer" transform="translate(590,296)"><rect class="bg" x="0.5" y="0.5" width="34" height="18" style="stroke-width: 1px; stroke: rgb(0, 0, 0); stroke-opacity: 0; fill: rgb(0, 0, 0); fill-opacity: 0;"/><text class="annotation-text" text-anchor="middle" x="17.5" y="14" style="font-family: 'Open Sans', verdana, arial, sans-serif; font-size: 12px; fill: rgb(42, 63, 95); fill-opacity: 1; white-space: pre;">short</text></g></g></g><g class="annotation" data-index="3" style="opacity: 1;"><g class="annotation-text-g" transform="rotate(90,607.92,135.07500000000002)"><g class="cursor-pointer" transform="translate(599,126)"><rect class="bg" x="0.5" y="0.5" width="17" height="18" style="stroke-width: 1px; stroke: rgb(0, 0, 0); stroke-opacity: 0; fill: rgb(0, 0, 0); fill-opacity: 0;"/><text class="annotation-text" text-anchor="middle" x="9.15625" y="14" style="font-family: 'Open Sans', verdana, arial, sans-serif; font-size: 12px; fill: rgb(42, 63, 95); fill-opacity: 1; white-space: pre;">ya</text></g></g></g></g></svg>